<svg id="svg" version="1.1" xmlns="http://www.w3.org/2000/svg" xmlns:xlink="http://www.w3.org/1999/xlink" width="400" height="448.9795918367347" viewBox="0, 0, 400,448.9795918367347"><g id="svgg"><path id="path0" d="M185.800 66.781 C 182.720 66.954,179.120 67.286,177.800 67.518 C 176.480 67.750,174.320 68.053,173.000 68.190 C 171.680 68.328,169.430 68.685,168.000 68.985 C 166.570 69.284,164.500 69.711,163.400 69.934 C 159.410 70.740,156.136 71.577,153.000 72.592 C 151.240 73.162,147.820 74.266,145.400 75.045 C 135.870 78.115,121.466 84.642,114.600 89.003 C 113.060 89.980,110.909 91.256,109.820 91.838 C 108.038 92.789,105.727 94.271,105.200 94.801 C 105.090 94.912,104.190 95.542,103.200 96.201 C 102.210 96.861,100.468 98.120,99.329 99.000 C 98.190 99.880,96.627 101.063,95.855 101.629 C 95.084 102.195,93.202 103.773,91.673 105.135 C 90.144 106.497,88.380 108.014,87.753 108.506 C 86.104 109.799,76.712 119.269,73.200 123.180 C 68.226 128.720,61.221 138.127,57.993 143.600 C 57.021 145.250,55.674 147.410,55.001 148.400 C 53.654 150.381,47.514 162.688,45.821 166.800 C 45.232 168.230,44.514 169.940,44.226 170.600 C 43.791 171.598,41.161 179.448,38.197 188.600 C 37.841 189.700,37.381 191.410,37.175 192.400 C 36.969 193.390,36.537 195.460,36.215 197.000 C 31.793 218.128,31.730 245.983,36.065 264.000 C 36.303 264.990,36.727 266.970,37.007 268.400 C 40.943 288.508,56.005 318.648,70.390 335.200 C 71.442 336.410,73.067 338.300,74.002 339.400 C 78.692 344.920,91.906 357.644,94.318 358.961 C 94.693 359.166,96.260 360.352,97.800 361.597 C 99.340 362.841,101.590 364.489,102.800 365.259 C 104.010 366.028,106.170 367.401,107.600 368.308 C 109.030 369.216,110.380 370.108,110.600 370.290 C 112.015 371.466,127.444 379.815,129.894 380.731 C 130.502 380.959,133.610 382.209,136.800 383.510 C 139.990 384.811,143.095 385.997,143.700 386.145 C 144.305 386.294,144.800 386.592,144.800 386.808 C 144.800 387.033,146.236 387.200,148.177 387.200 C 151.993 387.200,153.520 386.573,155.218 384.309 L 156.200 383.000 156.200 367.133 C 156.200 358.407,156.076 351.142,155.924 350.991 C 155.772 350.839,153.322 351.094,150.478 351.557 C 131.598 354.635,114.524 349.771,105.147 338.642 C 103.178 336.306,98.800 328.528,98.800 327.367 C 98.800 327.135,94.949 319.954,93.885 318.202 C 93.283 317.212,88.157 311.354,86.800 310.106 C 86.250 309.601,84.270 308.175,82.400 306.939 C 74.625 301.799,73.012 297.699,77.861 295.398 C 81.415 293.711,92.571 295.458,95.568 298.171 C 95.950 298.517,96.456 298.800,96.692 298.800 C 99.091 298.800,106.015 305.961,111.398 314.009 C 121.365 328.909,134.904 332.971,153.778 326.726 C 156.611 325.788,156.993 325.336,157.599 322.200 C 158.571 317.174,160.653 312.077,162.962 309.067 C 165.973 305.143,165.995 305.180,159.971 304.227 C 154.135 303.304,150.849 302.512,142.200 299.944 C 116.620 292.348,99.918 274.949,94.450 250.200 C 92.429 241.055,92.135 238.745,91.366 226.000 C 91.075 221.179,92.063 209.855,93.009 207.174 C 93.334 206.253,93.600 205.187,93.600 204.805 C 93.600 203.566,96.449 195.469,97.635 193.338 C 98.270 192.196,99.205 190.484,99.714 189.531 C 101.066 186.999,103.409 183.417,105.641 180.468 C 107.920 177.458,107.892 177.690,106.615 172.332 C 103.150 157.798,106.548 134.034,112.243 132.965 C 114.345 132.571,120.866 133.067,123.539 133.824 C 131.251 136.010,132.422 136.395,136.400 138.062 C 139.969 139.557,149.334 144.609,152.528 146.761 C 156.790 149.633,156.804 149.639,159.000 149.361 C 160.100 149.222,161.288 148.957,161.641 148.772 C 162.451 148.346,166.931 147.380,172.600 146.408 C 192.990 142.912,219.545 143.863,235.748 148.670 C 239.724 149.849,241.015 149.602,245.007 146.900 C 252.769 141.645,263.611 136.766,274.108 133.805 C 277.172 132.941,284.227 132.549,286.028 133.143 C 287.744 133.710,288.059 134.216,289.174 138.200 C 289.666 139.960,290.413 142.493,290.835 143.828 C 291.256 145.164,291.606 146.874,291.614 147.628 C 291.622 148.383,291.885 150.170,292.200 151.600 C 292.515 153.030,292.778 156.246,292.786 158.747 C 292.802 163.817,292.182 167.914,290.319 175.050 C 289.747 177.239,290.064 178.249,291.997 180.400 C 305.766 195.725,310.290 223.238,303.560 250.737 C 302.405 255.457,302.047 256.518,300.349 260.244 C 299.937 261.148,299.600 262.065,299.600 262.282 C 299.600 262.747,296.117 269.669,295.012 271.400 C 293.396 273.931,287.362 281.416,285.842 282.776 C 284.966 283.559,283.518 284.877,282.625 285.704 C 280.888 287.312,275.470 291.200,274.966 291.200 C 274.799 291.200,274.379 291.451,274.031 291.759 C 271.777 293.753,262.373 297.881,255.400 299.936 C 253.860 300.390,251.700 301.027,250.600 301.352 C 247.439 302.286,243.714 303.093,238.361 304.004 C 232.224 305.049,232.282 304.990,234.367 308.084 C 241.133 318.124,241.682 321.723,241.630 355.680 C 241.586 384.636,241.501 383.704,244.401 386.001 C 246.175 387.406,251.267 387.751,253.468 386.616 C 254.090 386.294,257.390 384.927,260.800 383.578 C 270.496 379.741,282.650 373.499,288.884 369.155 C 289.480 368.740,290.055 368.400,290.163 368.400 C 290.621 368.400,298.637 362.676,303.487 358.886 C 309.293 354.348,320.840 343.099,325.755 337.192 C 327.490 335.106,329.119 333.220,329.374 333.000 C 330.631 331.916,339.150 319.346,342.826 313.151 C 344.436 310.436,351.388 296.649,352.784 293.400 C 352.973 292.960,353.481 291.790,353.913 290.800 C 356.900 283.953,361.920 265.404,363.007 257.200 C 363.313 254.890,363.760 251.740,364.000 250.200 C 365.834 238.460,364.623 211.148,361.634 196.800 C 360.112 189.496,355.436 174.188,353.350 169.685 C 352.608 168.081,352.000 166.701,352.000 166.617 C 352.000 165.928,345.845 153.865,343.215 149.400 C 339.609 143.278,337.419 139.942,331.438 131.458 C 327.242 125.507,315.521 113.276,306.785 105.732 C 302.827 102.314,295.254 96.400,294.835 96.400 C 294.701 96.400,294.143 95.984,293.594 95.475 C 293.046 94.967,291.248 93.771,289.599 92.819 C 287.949 91.867,284.809 90.009,282.620 88.690 C 276.414 84.951,262.710 78.559,255.974 76.261 C 250.354 74.343,241.412 71.573,239.600 71.188 C 238.610 70.977,236.900 70.545,235.800 70.227 C 232.964 69.408,230.038 68.931,217.433 67.230 C 213.278 66.669,192.924 66.380,185.800 66.781 M99.033 307.947 C 98.915 308.137,99.152 308.594,99.559 308.963 C 100.254 309.592,100.311 309.584,100.506 308.839 C 100.800 307.714,99.619 306.998,99.033 307.947 M106.000 316.396 C 105.535 316.691,105.500 316.938,105.844 317.489 C 106.331 318.271,107.254 318.438,107.472 317.784 C 107.732 317.004,106.650 315.983,106.000 316.396 M113.600 326.456 C 113.600 327.414,114.637 328.368,115.700 328.387 C 116.153 328.396,116.400 328.097,116.400 327.544 C 116.400 326.586,115.363 325.632,114.300 325.613 C 113.847 325.604,113.600 325.903,113.600 326.456 M124.400 333.382 C 124.400 334.191,124.651 334.411,125.830 334.632 C 127.490 334.944,128.196 334.448,127.813 333.240 C 127.385 331.891,124.400 332.015,124.400 333.382 M152.100 333.212 C 150.975 333.665,150.939 334.632,152.026 335.214 C 153.359 335.927,155.279 334.169,154.116 333.300 C 153.350 332.727,153.311 332.726,152.100 333.212 M138.710 335.023 C 138.104 335.629,138.956 336.800,140.004 336.800 C 141.094 336.800,141.840 335.912,141.378 335.164 C 141.134 334.769,139.073 334.660,138.710 335.023 " stroke="none" fill="#f8fafa" fill-rule="evenodd"></path><path id="path1" d="M0.000 224.400 L 0.000 448.800 200.000 448.800 L 400.000 448.800 400.000 224.400 L 400.000 0.000 200.000 0.000 L 0.000 0.000 0.000 224.400 M221.600 65.628 C 222.810 65.860,225.420 66.298,227.400 66.603 C 232.094 67.325,237.942 68.579,241.200 69.561 C 242.630 69.993,244.970 70.652,246.400 71.027 C 253.183 72.804,259.054 74.859,264.600 77.399 C 265.700 77.902,268.400 79.089,270.600 80.036 C 272.800 80.983,275.410 82.228,276.400 82.803 C 277.390 83.378,278.470 83.976,278.800 84.132 C 279.130 84.288,280.120 84.859,281.000 85.400 C 281.880 85.942,283.095 86.608,283.700 86.880 C 284.305 87.153,284.800 87.516,284.800 87.688 C 284.800 87.859,285.033 88.000,285.317 88.000 C 286.176 88.000,302.885 99.485,304.200 100.978 C 304.420 101.228,305.950 102.501,307.600 103.807 C 312.281 107.511,317.212 112.239,323.200 118.765 C 327.742 123.714,327.565 123.510,329.492 126.007 C 330.423 127.213,331.422 128.470,331.712 128.800 C 333.299 130.602,337.161 135.869,339.013 138.756 C 339.240 139.110,340.346 140.789,341.471 142.487 C 342.596 144.185,343.909 146.345,344.388 147.287 C 344.868 148.229,345.879 150.080,346.634 151.400 C 348.604 154.842,352.800 163.445,352.800 164.042 C 352.800 164.320,353.177 165.369,353.639 166.374 C 354.100 167.378,354.710 168.740,354.995 169.400 C 355.280 170.060,355.893 171.429,356.356 172.441 C 357.728 175.442,361.135 186.484,362.082 191.000 C 362.313 192.100,362.749 193.679,363.051 194.508 C 363.353 195.338,363.600 196.474,363.600 197.034 C 363.600 197.595,363.945 199.616,364.366 201.526 C 368.580 220.646,368.092 246.335,363.138 266.200 C 362.918 267.080,362.507 268.970,362.223 270.400 C 361.940 271.830,361.503 273.507,361.254 274.126 C 361.004 274.745,360.800 275.618,360.800 276.066 C 360.800 276.513,360.549 277.446,360.242 278.140 C 359.935 278.833,359.197 281.020,358.602 283.000 C 357.529 286.569,356.297 289.630,354.785 292.479 C 354.353 293.293,354.000 294.166,354.000 294.419 C 354.000 295.401,351.051 301.747,346.945 309.600 C 338.602 325.556,324.338 343.456,310.565 355.256 C 309.445 356.215,307.895 357.548,307.119 358.218 C 300.796 363.677,291.543 370.193,284.000 374.495 C 283.230 374.934,282.150 375.597,281.600 375.968 C 281.050 376.339,278.980 377.420,277.000 378.369 C 275.020 379.319,271.870 380.857,270.000 381.787 C 268.130 382.717,265.430 383.881,264.000 384.373 C 262.570 384.866,260.922 385.523,260.338 385.834 C 259.754 386.145,258.944 386.406,258.538 386.414 C 258.132 386.421,257.080 386.775,256.200 387.200 C 254.872 387.842,253.700 387.975,249.301 387.986 L 244.002 388.000 242.412 386.563 C 239.181 383.644,239.401 385.916,239.396 355.400 C 239.391 326.428,239.337 325.469,237.380 319.146 C 235.990 314.654,234.220 311.127,231.913 308.252 C 229.731 305.534,229.386 303.824,230.900 303.230 C 232.067 302.772,238.684 301.594,240.068 301.597 C 241.088 301.600,244.110 300.955,251.600 299.137 C 253.470 298.682,256.066 297.881,257.369 297.356 C 258.672 296.830,259.932 296.394,260.169 296.386 C 260.406 296.379,261.320 296.025,262.200 295.600 C 263.080 295.175,264.010 294.821,264.268 294.814 C 264.525 294.806,265.245 294.546,265.868 294.235 C 266.490 293.925,267.990 293.190,269.200 292.602 C 271.063 291.697,275.646 288.814,277.000 287.696 C 277.220 287.514,278.480 286.574,279.800 285.607 C 283.174 283.136,287.254 278.881,291.503 273.400 C 292.105 272.624,295.065 267.360,296.723 264.120 C 306.395 245.210,306.872 206.001,297.596 192.257 C 296.938 191.282,296.400 190.352,296.400 190.190 C 296.400 190.028,295.770 189.019,295.000 187.947 C 294.230 186.875,293.600 185.896,293.600 185.771 C 293.600 185.428,291.300 182.156,290.501 181.364 C 287.955 178.838,287.600 177.554,288.594 174.454 C 290.761 167.692,290.800 167.415,290.800 158.768 C 290.800 151.607,290.691 150.124,290.005 147.936 C 289.568 146.541,289.202 145.040,289.193 144.600 C 289.090 139.963,285.304 133.744,282.828 134.146 C 282.042 134.273,279.870 134.628,278.000 134.935 C 274.809 135.458,270.281 136.827,265.200 138.803 C 263.990 139.273,262.480 139.851,261.845 140.087 C 259.955 140.790,251.988 145.035,250.000 146.399 C 249.450 146.777,248.190 147.536,247.200 148.087 C 246.210 148.638,244.770 149.471,244.000 149.939 C 240.940 151.799,240.055 151.865,235.400 150.586 C 226.867 148.241,208.837 146.417,196.400 146.640 C 187.039 146.809,175.947 147.858,169.410 149.194 C 168.304 149.420,166.500 149.769,165.400 149.970 C 164.300 150.171,161.946 150.655,160.169 151.045 L 156.938 151.754 152.769 149.318 C 150.476 147.978,147.520 146.297,146.200 145.583 C 144.880 144.869,143.586 144.118,143.324 143.913 C 141.795 142.720,136.350 140.262,130.200 137.990 C 129.100 137.584,126.983 136.790,125.496 136.225 C 124.008 135.661,122.118 135.196,121.296 135.192 C 120.473 135.187,118.630 134.936,117.200 134.634 C 113.430 133.837,110.864 135.368,110.786 138.460 C 110.779 138.757,110.425 139.720,110.000 140.600 C 109.575 141.480,109.221 142.673,109.214 143.251 C 109.206 143.829,108.935 144.936,108.612 145.710 C 106.615 150.488,106.938 166.063,109.197 173.979 C 110.192 177.467,110.072 178.205,108.085 180.806 C 107.268 181.874,105.700 184.038,104.600 185.613 C 103.500 187.188,102.285 188.769,101.900 189.127 C 101.515 189.485,101.200 189.915,101.200 190.083 C 101.200 190.250,100.651 191.515,99.979 192.894 C 97.432 198.122,95.050 204.959,94.427 208.826 C 94.220 210.108,93.834 211.562,93.569 212.059 C 92.771 213.549,92.924 234.386,93.753 237.173 C 94.109 238.368,94.400 239.959,94.400 240.708 C 94.400 243.461,97.702 256.427,99.024 258.862 C 99.341 259.446,99.600 260.146,99.600 260.418 C 99.600 260.885,100.888 263.899,101.643 265.200 C 101.835 265.530,102.370 266.500,102.833 267.357 C 106.504 274.149,113.276 282.164,118.588 286.001 C 120.262 287.211,122.786 289.055,124.198 290.100 C 125.610 291.145,126.856 292.000,126.967 292.000 C 127.078 292.000,128.481 292.608,130.085 293.350 C 133.772 295.059,143.388 298.505,146.800 299.341 C 152.594 300.761,156.510 301.600,157.332 301.597 C 158.054 301.595,162.514 302.315,166.314 303.046 C 168.092 303.389,168.249 306.312,166.543 307.319 C 165.959 307.664,162.402 312.950,162.398 313.479 C 162.396 313.655,162.105 314.340,161.751 315.000 C 161.084 316.242,160.500 318.088,159.167 323.175 C 158.739 324.812,158.124 326.442,157.801 326.799 C 156.471 328.269,150.166 330.244,144.947 330.826 C 142.778 331.068,140.771 331.458,140.488 331.693 C 140.119 331.999,138.928 331.925,136.286 331.432 C 132.684 330.759,126.829 330.705,128.651 331.361 C 132.139 332.618,130.226 337.504,126.413 337.078 C 121.398 336.518,121.188 330.400,126.184 330.400 C 126.963 330.400,127.600 330.220,127.600 330.000 C 127.600 329.780,127.293 329.600,126.917 329.600 C 125.366 329.600,118.707 325.075,114.968 321.480 C 110.356 317.047,110.637 317.168,109.613 319.174 C 107.974 322.387,103.200 320.502,103.200 316.642 C 103.200 314.470,107.389 312.652,108.135 314.500 C 108.246 314.775,108.351 314.601,108.368 314.113 C 108.418 312.721,103.725 306.400,102.642 306.400 C 102.551 306.400,102.572 307.116,102.690 307.992 C 103.125 311.236,100.606 312.726,98.301 310.588 C 95.666 308.146,97.683 303.932,100.710 305.552 C 102.825 306.684,101.340 304.353,98.600 302.240 C 96.494 300.616,95.600 300.537,95.600 301.973 C 95.600 305.099,91.980 305.771,90.465 302.926 C 89.789 301.656,89.866 301.365,91.251 299.948 L 92.502 298.668 89.751 297.694 C 85.679 296.253,80.319 296.207,78.291 297.595 L 76.837 298.590 77.535 299.784 C 78.256 301.019,80.459 302.906,84.768 305.980 C 87.869 308.193,90.632 310.872,92.200 313.186 C 92.860 314.160,93.823 315.417,94.340 315.978 C 94.857 316.540,95.992 318.260,96.862 319.800 C 97.732 321.340,98.614 322.870,98.823 323.200 C 99.031 323.530,99.383 324.250,99.604 324.800 C 99.825 325.350,100.274 326.278,100.603 326.862 C 100.931 327.446,101.200 328.265,101.200 328.682 C 101.200 329.099,101.387 329.627,101.616 329.856 C 101.845 330.085,102.340 330.839,102.716 331.532 C 105.687 337.004,108.837 340.305,114.600 343.987 C 116.140 344.971,117.460 345.917,117.533 346.088 C 117.607 346.260,117.972 346.400,118.344 346.400 C 118.717 346.400,119.377 346.649,119.811 346.953 C 120.245 347.257,121.680 347.806,123.000 348.174 C 125.308 348.818,126.739 349.103,132.400 350.045 C 136.775 350.772,153.237 349.851,155.267 348.764 C 155.770 348.495,156.177 348.695,156.920 349.578 L 157.906 350.750 158.202 364.952 C 158.558 382.047,158.295 383.905,155.107 386.832 L 153.800 388.032 148.200 387.890 C 143.219 387.764,142.291 387.627,139.800 386.643 C 138.260 386.034,136.460 385.395,135.800 385.222 C 132.490 384.355,113.624 374.905,110.527 372.563 C 109.826 372.033,109.154 371.600,109.032 371.600 C 108.661 371.600,100.863 366.426,100.605 366.009 C 100.473 365.795,99.428 364.996,98.282 364.234 C 97.137 363.472,95.210 362.015,94.000 360.997 C 92.790 359.979,91.440 358.853,91.000 358.494 C 83.624 352.488,73.947 342.858,68.998 336.600 C 67.258 334.400,65.686 332.420,65.505 332.200 C 65.324 331.980,64.464 330.810,63.594 329.600 C 62.724 328.390,61.739 327.048,61.406 326.619 C 61.073 326.189,60.799 325.649,60.798 325.419 C 60.797 325.188,60.296 324.460,59.685 323.800 C 58.072 322.059,53.575 315.104,52.766 313.100 C 52.522 312.495,52.197 312.000,52.044 312.000 C 51.758 312.000,47.671 304.020,44.873 298.000 C 42.071 291.970,39.126 283.990,37.789 278.800 C 37.477 277.590,36.521 273.900,35.665 270.600 C 33.783 263.351,32.807 258.472,32.384 254.200 C 32.210 252.440,31.853 249.830,31.590 248.400 C 30.816 244.181,30.951 215.806,31.763 212.074 C 32.113 210.464,32.408 208.214,32.417 207.074 C 32.427 205.933,32.615 204.190,32.836 203.200 C 33.056 202.210,33.488 200.050,33.795 198.400 C 34.102 196.750,35.005 193.060,35.801 190.200 C 36.598 187.340,37.493 184.100,37.792 183.000 C 39.045 178.389,39.629 176.482,40.428 174.400 C 40.893 173.190,41.514 171.447,41.809 170.526 C 42.104 169.606,42.898 167.806,43.572 166.526 C 44.247 165.247,44.799 164.063,44.799 163.895 C 44.800 163.728,45.700 161.687,46.800 159.361 C 47.900 157.035,48.800 155.066,48.800 154.987 C 48.800 154.638,51.769 149.787,52.053 149.672 C 52.226 149.601,52.850 148.521,53.437 147.272 C 54.025 146.022,55.023 144.344,55.653 143.542 C 56.284 142.741,56.804 141.931,56.808 141.742 C 56.817 141.355,60.817 135.738,61.775 134.766 C 62.119 134.418,62.400 134.014,62.400 133.868 C 62.400 133.437,66.242 128.181,67.677 126.651 C 68.404 125.874,69.630 124.383,70.400 123.339 C 73.653 118.925,82.429 110.112,88.600 105.063 C 90.140 103.803,91.685 102.508,92.034 102.186 C 92.382 101.864,92.797 101.600,92.956 101.600 C 93.115 101.600,93.730 101.081,94.323 100.447 C 95.521 99.165,101.716 94.800,102.337 94.800 C 102.555 94.800,102.793 94.628,102.867 94.418 C 103.063 93.855,107.262 90.800,107.839 90.800 C 108.111 90.800,108.393 90.661,108.467 90.492 C 108.636 90.100,112.897 87.288,113.868 86.927 C 114.271 86.777,116.524 85.518,118.875 84.127 C 121.226 82.737,123.296 81.599,123.475 81.598 C 123.654 81.596,124.340 81.311,125.000 80.965 C 125.660 80.618,127.280 79.890,128.600 79.347 C 131.217 78.270,133.037 77.451,135.200 76.375 C 136.966 75.496,145.487 72.541,148.400 71.796 C 149.610 71.487,152.940 70.616,155.800 69.862 C 163.704 67.776,167.869 66.865,171.525 66.420 C 173.354 66.198,175.064 65.879,175.325 65.712 C 176.565 64.917,217.493 64.843,221.600 65.628 M116.961 324.874 C 120.664 328.151,116.802 332.450,112.748 329.563 C 111.202 328.462,110.506 325.909,111.385 324.567 C 112.377 323.052,115.071 323.200,116.961 324.874 M155.326 331.660 C 157.286 332.691,157.309 334.371,155.389 336.291 C 152.314 339.366,146.950 336.431,149.246 332.929 C 150.360 331.232,153.334 330.611,155.326 331.660 M143.231 333.969 C 144.725 335.463,144.709 336.469,143.169 337.764 C 140.560 339.960,136.000 338.710,136.000 335.800 C 136.000 332.796,140.834 331.572,143.231 333.969 " stroke="none" fill="#04597a" fill-rule="evenodd"></path><path id="path2" d="M188.000 66.022 C 183.490 66.182,178.630 66.522,177.200 66.777 C 175.770 67.032,173.340 67.417,171.800 67.633 C 161.388 69.091,144.500 73.842,135.000 77.985 C 134.560 78.177,132.220 79.194,129.800 80.245 C 107.446 89.958,86.283 106.174,68.994 126.837 C 56.305 142.002,44.915 163.369,39.055 183.000 C 37.038 189.758,36.808 190.601,36.432 192.600 C 36.226 193.700,35.879 195.320,35.662 196.200 C 34.497 200.922,33.842 205.014,32.587 215.400 C 30.865 229.653,32.217 249.953,36.049 267.400 C 36.819 270.905,37.035 271.732,38.810 278.000 C 42.963 292.657,52.053 311.539,61.149 324.400 C 61.849 325.390,63.120 327.190,63.974 328.400 C 80.438 351.743,109.048 373.725,137.002 384.508 C 145.210 387.675,145.269 387.689,149.357 387.539 L 153.163 387.400 154.745 385.855 C 157.181 383.474,157.356 381.881,157.001 365.281 C 156.641 348.461,156.930 349.588,153.136 350.253 C 132.972 353.785,115.680 349.550,106.440 338.814 C 104.376 336.416,100.800 330.953,100.800 330.197 C 100.800 329.514,98.225 324.190,96.311 320.918 C 92.356 314.153,88.643 310.198,81.698 305.348 C 74.954 300.639,74.174 297.353,79.426 295.772 C 88.435 293.061,101.305 300.336,109.498 312.771 C 119.543 328.018,133.636 333.690,149.600 328.910 C 156.592 326.817,158.000 325.947,158.000 323.717 C 158.000 321.051,162.014 311.016,164.014 308.683 C 167.250 304.909,166.786 304.043,161.200 303.427 C 158.873 303.170,153.679 302.212,151.000 301.544 C 143.259 299.616,140.328 298.820,139.400 298.392 C 138.960 298.190,137.207 297.481,135.505 296.818 C 108.570 286.323,94.147 264.085,92.357 230.289 C 91.239 209.190,94.997 195.860,106.197 181.200 C 108.911 177.647,108.879 177.798,107.817 173.509 C 104.182 158.827,107.009 135.445,112.644 133.585 C 115.743 132.563,128.836 135.371,134.326 138.235 C 134.917 138.543,135.543 138.796,135.719 138.798 C 136.518 138.804,148.054 144.844,150.677 146.630 C 156.555 150.632,156.904 150.693,164.200 148.996 C 186.059 143.913,211.480 144.041,235.526 149.354 C 240.045 150.352,241.581 150.225,243.855 148.667 C 255.877 140.429,271.337 134.220,282.007 133.343 C 286.893 132.941,287.180 133.336,290.344 144.800 C 292.276 151.800,292.267 166.118,290.326 172.301 C 288.878 176.913,289.049 178.225,291.457 181.016 C 301.445 192.594,305.406 204.868,305.392 224.200 C 305.368 260.686,292.888 282.880,265.283 295.530 C 262.798 296.668,260.575 297.600,260.343 297.600 C 260.111 297.600,259.354 297.862,258.660 298.181 C 255.535 299.623,237.561 303.600,234.172 303.600 C 233.662 303.600,232.790 304.005,232.233 304.500 L 231.222 305.400 233.045 307.780 C 236.122 311.798,238.273 316.715,239.702 323.000 C 240.470 326.380,240.535 328.321,240.760 354.800 L 241.000 383.000 241.920 384.480 C 244.805 389.120,251.949 388.756,263.511 383.381 C 264.672 382.842,265.700 382.400,265.797 382.400 C 265.893 382.400,268.062 381.410,270.618 380.200 C 273.173 378.990,275.317 378.000,275.381 378.000 C 276.052 378.000,290.382 369.422,294.334 366.655 C 314.777 352.338,330.411 335.467,343.497 313.600 C 345.797 309.757,352.728 295.866,353.691 293.171 C 354.039 292.197,355.126 289.240,356.106 286.600 C 365.906 260.222,368.316 232.300,363.421 201.857 C 362.251 194.576,357.120 175.849,355.959 174.620 C 355.762 174.411,355.600 173.984,355.600 173.670 C 355.600 173.357,355.124 171.998,354.542 170.650 C 353.961 169.303,353.196 167.500,352.842 166.645 C 338.476 131.868,308.734 100.300,274.200 83.175 C 270.900 81.539,267.660 79.988,267.000 79.729 C 264.336 78.684,260.530 77.118,259.389 76.599 C 258.199 76.057,249.716 73.235,245.000 71.813 C 240.236 70.377,232.751 68.801,222.017 66.973 C 218.779 66.422,201.844 65.525,197.600 65.680 C 196.830 65.708,192.510 65.862,188.000 66.022 M217.433 67.230 C 230.038 68.931,232.964 69.408,235.800 70.227 C 236.900 70.545,238.610 70.977,239.600 71.188 C 241.412 71.573,250.354 74.343,255.974 76.261 C 262.710 78.559,276.414 84.951,282.620 88.690 C 284.809 90.009,287.949 91.867,289.599 92.819 C 291.248 93.771,293.046 94.967,293.594 95.475 C 294.143 95.984,294.701 96.400,294.835 96.400 C 295.254 96.400,302.827 102.314,306.785 105.732 C 315.521 113.276,327.242 125.507,331.438 131.458 C 337.419 139.942,339.609 143.278,343.215 149.400 C 345.845 153.865,352.000 165.928,352.000 166.617 C 352.000 166.701,352.608 168.081,353.350 169.685 C 355.436 174.188,360.112 189.496,361.634 196.800 C 364.623 211.148,365.834 238.460,364.000 250.200 C 363.760 251.740,363.313 254.890,363.007 257.200 C 361.920 265.404,356.900 283.953,353.913 290.800 C 353.481 291.790,352.973 292.960,352.784 293.400 C 351.388 296.649,344.436 310.436,342.826 313.151 C 339.150 319.346,330.631 331.916,329.374 333.000 C 329.119 333.220,327.490 335.106,325.755 337.192 C 320.840 343.099,309.293 354.348,303.487 358.886 C 298.637 362.676,290.621 368.400,290.163 368.400 C 290.055 368.400,289.480 368.740,288.884 369.155 C 282.650 373.499,270.496 379.741,260.800 383.578 C 257.390 384.927,254.090 386.294,253.468 386.616 C 251.267 387.751,246.175 387.406,244.401 386.001 C 241.501 383.704,241.586 384.636,241.630 355.680 C 241.682 321.723,241.133 318.124,234.367 308.084 C 232.282 304.990,232.224 305.049,238.361 304.004 C 243.714 303.093,247.439 302.286,250.600 301.352 C 251.700 301.027,253.860 300.390,255.400 299.936 C 262.373 297.881,271.777 293.753,274.031 291.759 C 274.379 291.451,274.799 291.200,274.966 291.200 C 275.470 291.200,280.888 287.312,282.625 285.704 C 283.518 284.877,284.966 283.559,285.842 282.776 C 287.362 281.416,293.396 273.931,295.012 271.400 C 296.117 269.669,299.600 262.747,299.600 262.282 C 299.600 262.065,299.937 261.148,300.349 260.244 C 302.047 256.518,302.405 255.457,303.560 250.737 C 310.290 223.238,305.766 195.725,291.997 180.400 C 290.064 178.249,289.747 177.239,290.319 175.050 C 292.182 167.914,292.802 163.817,292.786 158.747 C 292.778 156.246,292.515 153.030,292.200 151.600 C 291.885 150.170,291.622 148.383,291.614 147.628 C 291.606 146.874,291.256 145.164,290.835 143.828 C 290.413 142.493,289.666 139.960,289.174 138.200 C 288.059 134.216,287.744 133.710,286.028 133.143 C 284.227 132.549,277.172 132.941,274.108 133.805 C 263.611 136.766,252.769 141.645,245.007 146.900 C 241.015 149.602,239.724 149.849,235.748 148.670 C 219.545 143.863,192.990 142.912,172.600 146.408 C 166.931 147.380,162.451 148.346,161.641 148.772 C 161.288 148.957,160.100 149.222,159.000 149.361 C 156.804 149.639,156.790 149.633,152.528 146.761 C 149.334 144.609,139.969 139.557,136.400 138.062 C 132.422 136.395,131.251 136.010,123.539 133.824 C 120.866 133.067,114.345 132.571,112.243 132.965 C 106.548 134.034,103.150 157.798,106.615 172.332 C 107.892 177.690,107.920 177.458,105.641 180.468 C 103.409 183.417,101.066 186.999,99.714 189.531 C 99.205 190.484,98.270 192.196,97.635 193.338 C 96.449 195.469,93.600 203.566,93.600 204.805 C 93.600 205.187,93.334 206.253,93.009 207.174 C 92.063 209.855,91.075 221.179,91.366 226.000 C 92.135 238.745,92.429 241.055,94.450 250.200 C 99.918 274.949,116.620 292.348,142.200 299.944 C 150.849 302.512,154.135 303.304,159.971 304.227 C 165.995 305.180,165.973 305.143,162.962 309.067 C 160.653 312.077,158.571 317.174,157.599 322.200 C 156.993 325.336,156.611 325.788,153.778 326.726 C 134.904 332.971,121.365 328.909,111.398 314.009 C 106.015 305.961,99.091 298.800,96.692 298.800 C 96.456 298.800,95.950 298.517,95.568 298.171 C 92.571 295.458,81.415 293.711,77.861 295.398 C 73.012 297.699,74.625 301.799,82.400 306.939 C 84.270 308.175,86.250 309.601,86.800 310.106 C 88.157 311.354,93.283 317.212,93.885 318.202 C 94.949 319.954,98.800 327.135,98.800 327.367 C 98.800 328.528,103.178 336.306,105.147 338.642 C 114.524 349.771,131.598 354.635,150.478 351.557 C 153.322 351.094,155.772 350.839,155.924 350.991 C 156.076 351.142,156.200 358.407,156.200 367.133 L 156.200 383.000 155.218 384.309 C 153.520 386.573,151.993 387.200,148.177 387.200 C 146.236 387.200,144.800 387.033,144.800 386.808 C 144.800 386.592,144.305 386.294,143.700 386.145 C 143.095 385.997,139.990 384.811,136.800 383.510 C 133.610 382.209,130.502 380.959,129.894 380.731 C 127.444 379.815,112.015 371.466,110.600 370.290 C 110.380 370.108,109.030 369.216,107.600 368.308 C 106.170 367.401,104.010 366.028,102.800 365.259 C 101.590 364.489,99.340 362.841,97.800 361.597 C 96.260 360.352,94.693 359.166,94.318 358.961 C 91.906 357.644,78.692 344.920,74.002 339.400 C 73.067 338.300,71.442 336.410,70.390 335.200 C 56.005 318.648,40.943 288.508,37.007 268.400 C 36.727 266.970,36.303 264.990,36.065 264.000 C 31.730 245.983,31.793 218.128,36.215 197.000 C 36.537 195.460,36.969 193.390,37.175 192.400 C 37.381 191.410,37.841 189.700,38.197 188.600 C 41.161 179.448,43.791 171.598,44.226 170.600 C 44.514 169.940,45.232 168.230,45.821 166.800 C 47.514 162.688,53.654 150.381,55.001 148.400 C 55.674 147.410,57.021 145.250,57.993 143.600 C 61.221 138.127,68.226 128.720,73.200 123.180 C 76.712 119.269,86.104 109.799,87.753 108.506 C 88.380 108.014,90.144 106.497,91.673 105.135 C 93.202 103.773,95.084 102.195,95.855 101.629 C 96.627 101.063,98.190 99.880,99.329 99.000 C 100.468 98.120,102.210 96.861,103.200 96.201 C 104.190 95.542,105.090 94.912,105.200 94.801 C 105.727 94.271,108.038 92.789,109.820 91.838 C 110.909 91.256,113.060 89.980,114.600 89.003 C 121.466 84.642,135.870 78.115,145.400 75.045 C 147.820 74.266,151.240 73.162,153.000 72.592 C 156.136 71.577,159.410 70.740,163.400 69.934 C 164.500 69.711,166.570 69.284,168.000 68.985 C 169.430 68.685,171.680 68.328,173.000 68.190 C 174.320 68.053,176.480 67.750,177.800 67.518 C 183.951 66.435,210.133 66.245,217.433 67.230 M91.600 301.759 C 91.600 303.035,92.895 303.849,93.591 303.011 C 94.361 302.083,93.914 301.014,92.697 300.873 C 91.757 300.765,91.600 300.891,91.600 301.759 M98.421 307.374 C 97.523 308.456,99.358 310.658,100.781 310.206 C 101.327 310.033,101.600 309.603,101.600 308.917 C 101.600 307.186,99.445 306.141,98.421 307.374 M100.490 307.823 C 101.187 308.520,100.287 309.621,99.559 308.963 C 99.152 308.594,98.915 308.137,99.033 307.947 C 99.274 307.557,100.150 307.483,100.490 307.823 M104.897 315.663 C 104.139 316.421,104.299 317.374,105.381 318.542 C 106.665 319.927,107.899 319.919,108.430 318.522 C 109.187 316.530,106.337 314.223,104.897 315.663 M107.472 317.784 C 107.254 318.438,106.331 318.271,105.844 317.489 C 105.207 316.467,106.383 315.724,107.105 316.691 C 107.383 317.063,107.548 317.555,107.472 317.784 M112.924 324.998 C 111.486 326.006,112.499 328.247,114.829 329.212 C 115.754 329.595,116.127 329.592,116.600 329.200 C 118.698 327.458,115.170 323.425,112.924 324.998 M115.700 326.157 C 116.085 326.449,116.400 327.073,116.400 327.544 C 116.400 328.097,116.153 328.396,115.700 328.387 C 114.637 328.368,113.600 327.414,113.600 326.456 C 113.600 325.472,114.608 325.328,115.700 326.157 M123.980 332.224 C 123.239 333.117,123.952 334.870,125.324 335.528 C 127.543 336.591,129.749 335.097,128.968 333.060 C 128.471 331.765,124.863 331.160,123.980 332.224 M151.054 332.829 C 149.602 333.971,149.663 335.363,151.192 335.997 C 153.727 337.047,156.349 335.003,155.037 333.000 C 154.216 331.748,152.521 331.675,151.054 332.829 M127.813 333.240 C 128.196 334.448,127.490 334.944,125.830 334.632 C 124.651 334.411,124.400 334.191,124.400 333.382 C 124.400 332.015,127.385 331.891,127.813 333.240 M154.116 333.300 C 155.279 334.169,153.359 335.927,152.026 335.214 C 150.939 334.632,150.975 333.665,152.100 333.212 C 153.311 332.726,153.350 332.727,154.116 333.300 M138.150 334.500 C 136.467 336.417,138.643 338.708,141.033 337.536 C 142.838 336.651,143.125 335.798,142.017 334.618 C 140.822 333.346,139.206 333.296,138.150 334.500 M141.378 335.164 C 141.840 335.912,141.094 336.800,140.004 336.800 C 138.956 336.800,138.104 335.629,138.710 335.023 C 139.073 334.660,141.134 334.769,141.378 335.164 " stroke="none" fill="#87b4c4" fill-rule="evenodd"></path><path id="path3" d="M182.800 65.204 C 178.950 65.316,175.586 65.544,175.325 65.712 C 175.064 65.879,173.354 66.198,171.525 66.420 C 167.869 66.865,163.704 67.776,155.800 69.862 C 152.940 70.616,149.610 71.487,148.400 71.796 C 145.487 72.541,136.966 75.496,135.200 76.375 C 133.037 77.451,131.217 78.270,128.600 79.347 C 127.280 79.890,125.660 80.618,125.000 80.965 C 124.340 81.311,123.654 81.596,123.475 81.598 C 123.296 81.599,121.226 82.737,118.875 84.127 C 116.524 85.518,114.271 86.777,113.868 86.927 C 112.897 87.288,108.636 90.100,108.467 90.492 C 108.393 90.661,108.111 90.800,107.839 90.800 C 107.262 90.800,103.063 93.855,102.867 94.418 C 102.793 94.628,102.555 94.800,102.337 94.800 C 101.716 94.800,95.521 99.165,94.323 100.447 C 93.730 101.081,93.115 101.600,92.956 101.600 C 92.797 101.600,92.382 101.864,92.034 102.186 C 91.685 102.508,90.140 103.803,88.600 105.063 C 82.429 110.112,73.653 118.925,70.400 123.339 C 69.630 124.383,68.404 125.874,67.677 126.651 C 66.242 128.181,62.400 133.437,62.400 133.868 C 62.400 134.014,62.119 134.418,61.775 134.766 C 60.817 135.738,56.817 141.355,56.808 141.742 C 56.804 141.931,56.284 142.741,55.653 143.542 C 55.023 144.344,54.025 146.022,53.437 147.272 C 52.850 148.521,52.226 149.601,52.053 149.672 C 51.769 149.787,48.800 154.638,48.800 154.987 C 48.800 155.066,47.900 157.035,46.800 159.361 C 45.700 161.687,44.800 163.728,44.799 163.895 C 44.799 164.063,44.247 165.247,43.572 166.526 C 42.898 167.806,42.104 169.606,41.809 170.526 C 41.514 171.447,40.893 173.190,40.428 174.400 C 39.629 176.482,39.045 178.389,37.792 183.000 C 37.493 184.100,36.598 187.340,35.801 190.200 C 35.005 193.060,34.102 196.750,33.795 198.400 C 33.488 200.050,33.056 202.210,32.836 203.200 C 32.615 204.190,32.427 205.933,32.417 207.074 C 32.408 208.214,32.113 210.464,31.763 212.074 C 30.951 215.806,30.816 244.181,31.590 248.400 C 31.853 249.830,32.210 252.440,32.384 254.200 C 32.807 258.472,33.783 263.351,35.665 270.600 C 36.521 273.900,37.477 277.590,37.789 278.800 C 39.126 283.990,42.071 291.970,44.873 298.000 C 47.671 304.020,51.758 312.000,52.044 312.000 C 52.197 312.000,52.522 312.495,52.766 313.100 C 53.575 315.104,58.072 322.059,59.685 323.800 C 60.296 324.460,60.797 325.188,60.798 325.419 C 60.799 325.649,61.073 326.189,61.406 326.619 C 61.739 327.048,62.724 328.390,63.594 329.600 C 64.464 330.810,65.324 331.980,65.505 332.200 C 65.686 332.420,67.258 334.400,68.998 336.600 C 73.947 342.858,83.624 352.488,91.000 358.494 C 91.440 358.853,92.790 359.979,94.000 360.997 C 95.210 362.015,97.137 363.472,98.282 364.234 C 99.428 364.996,100.473 365.795,100.605 366.009 C 100.863 366.426,108.661 371.600,109.032 371.600 C 109.154 371.600,109.826 372.033,110.527 372.563 C 113.624 374.905,132.490 384.355,135.800 385.222 C 136.460 385.395,138.260 386.027,139.800 386.625 C 141.589 387.321,143.539 387.752,145.200 387.820 C 147.616 387.918,147.658 387.906,145.800 387.649 C 144.039 387.404,141.515 386.636,139.000 385.579 C 138.560 385.394,136.847 384.716,135.194 384.071 C 119.093 377.795,103.740 368.317,87.804 354.813 C 81.590 349.548,72.939 340.346,66.543 332.200 C 63.945 328.890,63.003 327.582,58.724 321.344 C 52.854 312.784,45.961 299.258,42.140 288.800 C 41.377 286.710,40.565 284.550,40.336 284.000 C 39.823 282.766,38.188 277.098,37.796 275.200 C 37.638 274.430,37.366 273.620,37.193 273.400 C 37.020 273.180,36.688 271.920,36.454 270.600 C 36.221 269.280,35.492 265.680,34.835 262.600 C 30.874 244.039,30.603 217.897,34.202 201.600 C 34.518 200.170,35.061 197.740,35.409 196.200 C 35.756 194.660,36.194 192.588,36.381 191.595 C 36.569 190.602,36.991 188.892,37.320 187.795 C 37.650 186.698,38.410 184.090,39.010 182.000 C 44.399 163.224,56.042 141.977,70.352 124.800 C 74.551 119.760,83.760 110.200,86.541 107.994 C 87.508 107.228,89.627 105.468,91.250 104.085 C 92.872 102.701,94.380 101.433,94.600 101.267 C 101.221 96.265,102.309 95.488,107.400 92.117 C 111.989 89.079,114.409 87.610,117.800 85.807 C 119.120 85.106,121.190 83.995,122.400 83.339 C 123.610 82.683,126.580 81.289,129.000 80.240 C 131.420 79.192,133.760 78.177,134.200 77.985 C 140.264 75.340,150.127 72.046,156.400 70.571 C 157.610 70.287,159.320 69.875,160.200 69.655 C 162.052 69.194,168.680 67.882,173.600 67.003 C 179.956 65.868,184.583 65.614,199.000 65.610 C 216.500 65.606,218.239 65.771,234.800 69.007 C 242.459 70.504,253.913 74.009,261.800 77.270 C 264.440 78.361,267.137 79.467,267.794 79.727 C 275.342 82.716,292.665 93.026,300.577 99.239 C 312.474 108.582,324.414 120.281,330.500 128.560 C 331.325 129.682,332.601 131.320,333.336 132.200 C 338.599 138.499,349.622 157.723,353.147 166.750 C 353.867 168.592,354.621 170.392,354.825 170.750 C 355.202 171.415,355.452 172.096,357.819 178.924 C 360.032 185.308,362.865 196.274,363.418 200.600 C 363.558 201.700,363.836 203.246,364.035 204.037 C 366.671 214.503,366.899 238.317,364.516 254.200 C 364.186 256.400,363.756 259.280,363.562 260.600 C 363.368 261.920,362.947 264.080,362.627 265.400 C 361.061 271.866,359.459 277.941,358.989 279.200 C 358.701 279.970,357.979 282.178,357.384 284.107 C 356.789 286.036,356.144 287.711,355.951 287.830 C 355.758 287.950,355.600 288.354,355.600 288.730 C 355.600 289.105,355.265 290.039,354.856 290.806 C 354.447 291.573,353.981 292.650,353.820 293.200 C 352.660 297.176,345.011 311.902,340.121 319.574 C 320.781 349.911,292.178 373.021,258.000 385.923 C 250.447 388.774,243.830 388.195,241.520 384.480 L 240.600 383.000 240.372 355.200 C 240.138 326.651,240.022 324.516,238.422 319.414 C 236.637 313.715,235.359 311.252,231.702 306.460 C 230.154 304.430,231.135 303.843,237.800 302.805 C 245.127 301.664,255.044 299.360,257.860 298.144 C 258.554 297.845,259.287 297.600,259.490 297.600 C 260.351 297.600,270.555 292.816,273.400 291.079 C 280.492 286.748,288.262 279.510,292.177 273.590 C 295.592 268.426,295.909 267.881,297.531 264.400 C 304.834 248.723,307.524 223.040,303.650 205.995 C 301.797 197.847,296.062 186.456,290.979 180.830 C 288.837 178.459,288.595 174.573,290.380 171.237 C 291.603 168.953,291.889 153.437,290.810 148.000 C 289.742 142.626,287.598 136.058,286.473 134.722 C 283.068 130.676,263.291 137.007,245.849 147.726 C 240.933 150.747,240.954 150.743,235.143 149.547 C 213.111 145.013,190.613 144.416,171.600 147.860 C 165.534 148.959,158.240 150.452,157.896 150.665 C 157.423 150.957,155.268 149.875,150.615 147.009 C 145.810 144.050,139.504 140.697,136.200 139.346 C 134.880 138.806,133.440 138.215,133.000 138.032 C 123.494 134.083,113.611 132.460,111.668 134.527 C 106.789 139.721,104.929 160.831,108.208 173.795 C 109.260 177.955,109.406 177.457,105.628 182.600 C 104.174 184.580,102.501 186.920,101.910 187.800 C 92.258 202.176,89.716 225.775,95.252 249.600 C 100.511 272.234,114.533 288.340,136.390 296.852 C 138.045 297.497,139.760 298.179,140.200 298.368 C 142.952 299.549,153.713 301.965,161.000 303.037 C 166.000 303.772,167.126 304.447,166.317 306.222 C 166.072 306.760,165.751 307.200,165.603 307.200 C 164.154 307.200,159.102 318.494,158.177 323.800 C 157.797 325.981,157.145 326.605,154.054 327.741 C 135.301 334.636,120.495 329.805,109.358 313.160 C 101.922 302.045,92.281 295.625,83.000 295.608 C 74.669 295.593,74.267 299.901,82.101 305.231 C 89.960 310.579,94.681 316.286,99.237 325.949 C 102.661 333.212,103.249 334.280,105.323 337.000 C 111.978 345.729,122.904 350.550,137.200 351.064 C 143.116 351.277,145.064 351.130,154.640 349.747 C 157.056 349.399,156.974 348.749,157.359 371.200 C 157.579 384.041,156.514 387.023,151.488 387.634 L 149.400 387.887 151.611 387.944 C 154.260 388.011,155.920 386.787,157.186 383.832 C 158.450 380.883,158.510 379.765,158.202 364.952 L 157.906 350.750 156.920 349.578 C 156.177 348.695,155.770 348.495,155.267 348.764 C 153.237 349.851,136.775 350.772,132.400 350.045 C 126.739 349.103,125.308 348.818,123.000 348.174 C 121.680 347.806,120.245 347.257,119.811 346.953 C 119.377 346.649,118.717 346.400,118.344 346.400 C 117.972 346.400,117.607 346.260,117.533 346.088 C 117.460 345.917,116.140 344.971,114.600 343.987 C 108.837 340.305,105.687 337.004,102.716 331.532 C 102.340 330.839,101.845 330.085,101.616 329.856 C 101.387 329.627,101.200 329.099,101.200 328.682 C 101.200 328.265,100.931 327.446,100.603 326.862 C 100.274 326.278,99.825 325.350,99.604 324.800 C 99.383 324.250,99.031 323.530,98.823 323.200 C 98.614 322.870,97.732 321.340,96.862 319.800 C 95.992 318.260,94.857 316.540,94.340 315.978 C 93.823 315.417,92.860 314.160,92.200 313.186 C 90.632 310.872,87.869 308.193,84.768 305.980 C 80.459 302.906,78.256 301.019,77.535 299.784 L 76.837 298.590 78.291 297.595 C 80.319 296.207,85.679 296.253,89.751 297.694 L 92.502 298.668 91.251 299.948 C 89.866 301.365,89.789 301.656,90.465 302.926 C 91.980 305.771,95.600 305.099,95.600 301.973 C 95.600 300.537,96.494 300.616,98.600 302.240 C 101.340 304.353,102.825 306.684,100.710 305.552 C 97.683 303.932,95.666 308.146,98.301 310.588 C 100.606 312.726,103.125 311.236,102.690 307.992 C 102.572 307.116,102.551 306.400,102.642 306.400 C 103.725 306.400,108.418 312.721,108.368 314.113 C 108.351 314.601,108.246 314.775,108.135 314.500 C 107.389 312.652,103.200 314.470,103.200 316.642 C 103.200 320.502,107.974 322.387,109.613 319.174 C 110.637 317.168,110.356 317.047,114.968 321.480 C 118.707 325.075,125.366 329.600,126.917 329.600 C 127.293 329.600,127.600 329.780,127.600 330.000 C 127.600 330.220,126.963 330.400,126.184 330.400 C 121.188 330.400,121.398 336.518,126.413 337.078 C 130.226 337.504,132.139 332.618,128.651 331.361 C 126.829 330.705,132.684 330.759,136.286 331.432 C 138.928 331.925,140.119 331.999,140.488 331.693 C 140.771 331.458,142.778 331.068,144.947 330.826 C 150.166 330.244,156.471 328.269,157.801 326.799 C 158.124 326.442,158.739 324.812,159.167 323.175 C 160.500 318.088,161.084 316.242,161.751 315.000 C 162.105 314.340,162.396 313.655,162.398 313.479 C 162.402 312.950,165.959 307.664,166.543 307.319 C 168.249 306.312,168.092 303.389,166.314 303.046 C 162.514 302.315,158.054 301.595,157.332 301.597 C 156.510 301.600,152.594 300.761,146.800 299.341 C 143.388 298.505,133.772 295.059,130.085 293.350 C 128.481 292.608,127.078 292.000,126.967 292.000 C 126.856 292.000,125.610 291.145,124.198 290.100 C 122.786 289.055,120.262 287.211,118.588 286.001 C 116.201 284.277,110.429 278.560,108.289 275.801 C 107.427 274.689,103.568 268.716,102.833 267.357 C 102.370 266.500,101.835 265.530,101.643 265.200 C 100.888 263.899,99.600 260.885,99.600 260.418 C 99.600 260.146,99.341 259.446,99.024 258.862 C 97.702 256.427,94.400 243.461,94.400 240.708 C 94.400 239.959,94.109 238.368,93.753 237.173 C 92.924 234.386,92.771 213.549,93.569 212.059 C 93.834 211.562,94.220 210.108,94.427 208.826 C 95.050 204.959,97.432 198.122,99.979 192.894 C 100.651 191.515,101.200 190.250,101.200 190.083 C 101.200 189.915,101.515 189.485,101.900 189.127 C 102.285 188.769,103.500 187.188,104.600 185.613 C 105.700 184.038,107.268 181.874,108.085 180.806 C 110.072 178.205,110.192 177.467,109.197 173.979 C 106.938 166.063,106.615 150.488,108.612 145.710 C 108.935 144.936,109.206 143.829,109.214 143.251 C 109.221 142.673,109.575 141.480,110.000 140.600 C 110.425 139.720,110.779 138.757,110.786 138.460 C 110.864 135.368,113.430 133.837,117.200 134.634 C 118.630 134.936,120.473 135.187,121.296 135.192 C 122.118 135.196,124.008 135.661,125.496 136.225 C 126.983 136.790,129.100 137.584,130.200 137.990 C 136.350 140.262,141.795 142.720,143.324 143.913 C 143.586 144.118,144.880 144.869,146.200 145.583 C 147.520 146.297,150.476 147.978,152.769 149.318 L 156.938 151.754 160.169 151.045 C 161.946 150.655,164.300 150.171,165.400 149.970 C 166.500 149.769,168.304 149.420,169.410 149.194 C 175.947 147.858,187.039 146.809,196.400 146.640 C 208.837 146.417,226.867 148.241,235.400 150.586 C 240.055 151.865,240.940 151.799,244.000 149.939 C 244.770 149.471,246.210 148.638,247.200 148.087 C 248.190 147.536,249.450 146.777,250.000 146.399 C 251.988 145.035,259.955 140.790,261.845 140.087 C 262.480 139.851,263.990 139.273,265.200 138.803 C 270.281 136.827,274.809 135.458,278.000 134.935 C 279.870 134.628,282.042 134.273,282.828 134.146 C 285.304 133.744,289.090 139.963,289.193 144.600 C 289.202 145.040,289.568 146.541,290.005 147.936 C 290.691 150.124,290.800 151.607,290.800 158.768 C 290.800 167.415,290.761 167.692,288.594 174.454 C 287.600 177.554,287.955 178.838,290.501 181.364 C 291.300 182.156,293.600 185.428,293.600 185.771 C 293.600 185.896,294.230 186.875,295.000 187.947 C 295.770 189.019,296.400 190.028,296.400 190.190 C 296.400 190.352,296.938 191.282,297.596 192.257 C 306.872 206.001,306.395 245.210,296.723 264.120 C 295.065 267.360,292.105 272.624,291.503 273.400 C 287.254 278.881,283.174 283.136,279.800 285.607 C 278.480 286.574,277.220 287.514,277.000 287.696 C 275.646 288.814,271.063 291.697,269.200 292.602 C 267.990 293.190,266.490 293.925,265.868 294.235 C 265.245 294.546,264.525 294.806,264.268 294.814 C 264.010 294.821,263.080 295.175,262.200 295.600 C 261.320 296.025,260.406 296.379,260.169 296.386 C 259.932 296.394,258.672 296.830,257.369 297.356 C 256.066 297.881,253.470 298.682,251.600 299.137 C 244.110 300.955,241.088 301.600,240.068 301.597 C 238.684 301.594,232.067 302.772,230.900 303.230 C 229.386 303.824,229.731 305.534,231.913 308.252 C 234.220 311.127,235.990 314.654,237.380 319.146 C 239.337 325.469,239.391 326.428,239.396 355.400 C 239.401 385.916,239.181 383.644,242.412 386.563 L 244.002 388.000 249.301 387.986 C 253.700 387.975,254.872 387.842,256.200 387.200 C 257.080 386.775,258.132 386.421,258.538 386.414 C 258.944 386.406,259.754 386.145,260.338 385.834 C 260.922 385.523,262.570 384.866,264.000 384.373 C 265.430 383.881,268.130 382.717,270.000 381.787 C 271.870 380.857,275.020 379.319,277.000 378.369 C 278.980 377.420,281.050 376.339,281.600 375.968 C 282.150 375.597,283.230 374.934,284.000 374.495 C 291.543 370.193,300.796 363.677,307.119 358.218 C 307.895 357.548,309.445 356.215,310.565 355.256 C 327.179 341.023,342.893 319.878,351.925 299.600 C 353.680 295.661,354.000 294.861,354.000 294.419 C 354.000 294.166,354.353 293.293,354.785 292.479 C 356.297 289.630,357.529 286.569,358.602 283.000 C 359.197 281.020,359.935 278.833,360.242 278.140 C 360.549 277.446,360.800 276.513,360.800 276.066 C 360.800 275.618,361.004 274.745,361.254 274.126 C 361.503 273.507,361.940 271.830,362.223 270.400 C 362.507 268.970,362.918 267.080,363.138 266.200 C 368.092 246.335,368.580 220.646,364.366 201.526 C 363.945 199.616,363.600 197.595,363.600 197.034 C 363.600 196.474,363.353 195.338,363.051 194.508 C 362.749 193.679,362.313 192.100,362.082 191.000 C 361.135 186.484,357.728 175.442,356.356 172.441 C 355.893 171.429,355.280 170.060,354.995 169.400 C 354.710 168.740,354.100 167.378,353.639 166.374 C 353.177 165.369,352.800 164.320,352.800 164.042 C 352.800 163.445,348.604 154.842,346.634 151.400 C 345.879 150.080,344.868 148.229,344.388 147.287 C 343.909 146.345,342.596 144.185,341.471 142.487 C 340.346 140.789,339.240 139.110,339.013 138.756 C 337.161 135.869,333.299 130.602,331.712 128.800 C 331.422 128.470,330.423 127.213,329.492 126.007 C 327.565 123.510,327.742 123.714,323.200 118.765 C 317.212 112.239,312.281 107.511,307.600 103.807 C 305.950 102.501,304.420 101.228,304.200 100.978 C 302.885 99.485,286.176 88.000,285.317 88.000 C 285.033 88.000,284.800 87.859,284.800 87.688 C 284.800 87.516,284.305 87.153,283.700 86.880 C 283.095 86.608,281.880 85.942,281.000 85.400 C 280.120 84.859,279.130 84.288,278.800 84.132 C 278.470 83.976,277.390 83.378,276.400 82.803 C 275.410 82.228,272.800 80.983,270.600 80.036 C 268.400 79.089,265.700 77.902,264.600 77.399 C 259.054 74.859,253.183 72.804,246.400 71.027 C 244.970 70.652,242.630 69.993,241.200 69.561 C 237.942 68.579,232.094 67.325,227.400 66.603 C 225.420 66.298,222.810 65.860,221.600 65.628 C 219.162 65.162,193.775 64.884,182.800 65.204 M93.982 300.978 C 95.247 302.503,93.303 304.447,91.778 303.182 C 91.184 302.689,90.992 301.141,91.467 300.667 C 91.941 300.192,93.489 300.384,93.982 300.978 M101.148 307.237 C 103.388 309.324,100.995 311.678,98.709 309.635 C 97.545 308.595,97.473 308.398,97.906 307.446 C 98.496 306.152,99.887 306.062,101.148 307.237 M108.059 315.997 C 109.623 317.561,109.051 320.000,107.120 320.000 C 106.149 320.000,104.000 317.908,104.000 316.962 C 104.000 314.793,106.306 314.244,108.059 315.997 M111.385 324.567 C 110.866 325.359,110.830 325.825,111.186 327.147 C 112.317 331.348,118.400 331.740,118.400 327.612 C 118.400 324.381,113.033 322.052,111.385 324.567 M115.364 324.663 C 117.905 325.875,118.202 329.568,115.787 329.912 C 114.586 330.083,112.000 327.754,112.000 326.502 C 112.000 324.362,113.272 323.666,115.364 324.663 M150.687 331.538 C 148.724 332.314,148.110 335.252,149.626 336.623 C 152.434 339.164,158.505 335.572,156.494 332.560 C 155.693 331.361,152.540 330.806,150.687 331.538 M128.784 332.475 C 130.464 334.278,129.395 336.213,126.758 336.143 C 124.197 336.076,122.251 333.509,123.680 332.080 C 124.534 331.226,127.861 331.484,128.784 332.475 M155.419 332.973 C 156.152 334.092,155.788 335.143,154.308 336.179 C 151.530 338.125,148.068 335.132,150.400 332.800 C 151.619 331.581,154.574 331.683,155.419 332.973 M137.054 333.629 C 135.596 334.776,135.596 336.824,137.054 337.971 C 139.338 339.768,144.400 338.364,144.400 335.934 C 144.400 333.291,139.456 331.740,137.054 333.629 M141.350 333.581 C 143.644 334.453,143.632 336.714,141.327 337.808 C 138.767 339.023,136.066 337.119,137.240 334.926 C 138.062 333.390,139.559 332.900,141.350 333.581 " stroke="none" fill="#5495aa" fill-rule="evenodd"></path><path id="path4" d="M186.300 65.898 C 188.115 65.972,191.085 65.972,192.900 65.898 C 194.715 65.823,193.230 65.763,189.600 65.763 C 185.970 65.763,184.485 65.823,186.300 65.898 M205.519 65.898 C 207.344 65.972,210.224 65.972,211.919 65.897 C 213.614 65.822,212.120 65.761,208.600 65.762 C 205.080 65.762,203.694 65.824,205.519 65.898 M179.700 66.287 C 180.305 66.378,181.295 66.378,181.900 66.287 C 182.505 66.195,182.010 66.120,180.800 66.120 C 179.590 66.120,179.095 66.195,179.700 66.287 M216.105 66.287 C 216.714 66.379,217.614 66.377,218.105 66.282 C 218.597 66.187,218.100 66.111,217.000 66.114 C 215.900 66.117,215.497 66.195,216.105 66.287 M176.500 66.676 C 176.885 66.776,177.515 66.776,177.900 66.676 C 178.285 66.575,177.970 66.493,177.200 66.493 C 176.430 66.493,176.115 66.575,176.500 66.676 M172.800 67.200 L 171.800 67.520 172.800 67.520 C 173.350 67.520,174.250 67.376,174.800 67.200 L 175.800 66.880 174.800 66.880 C 174.250 66.880,173.350 67.024,172.800 67.200 M223.000 67.200 C 224.692 67.631,226.144 67.631,224.800 67.200 C 224.250 67.024,223.350 66.883,222.800 66.887 C 221.902 66.894,221.922 66.926,223.000 67.200 M230.400 68.400 C 231.768 68.838,232.819 68.838,231.800 68.400 C 231.360 68.211,230.640 68.062,230.200 68.068 C 229.557 68.077,229.596 68.143,230.400 68.400 M249.000 73.014 C 249.660 73.317,250.470 73.565,250.800 73.566 C 251.130 73.568,250.794 73.306,250.054 72.984 C 248.353 72.246,247.382 72.274,249.000 73.014 M145.400 73.786 C 143.855 74.493,144.574 74.503,146.400 73.800 C 147.170 73.503,147.530 73.255,147.200 73.248 C 146.870 73.242,146.060 73.483,145.400 73.786 M252.000 74.000 C 252.330 74.213,252.870 74.388,253.200 74.388 C 253.733 74.388,253.733 74.345,253.200 74.000 C 252.870 73.787,252.330 73.612,252.000 73.612 C 251.467 73.612,251.467 73.655,252.000 74.000 M141.275 75.073 C 140.326 75.409,139.621 75.754,139.707 75.840 C 139.793 75.927,140.840 75.651,142.032 75.228 C 143.224 74.805,143.930 74.460,143.600 74.461 C 143.270 74.462,142.224 74.738,141.275 75.073 M256.800 75.533 C 257.130 75.736,257.850 76.024,258.400 76.171 C 259.095 76.357,259.217 76.325,258.800 76.067 C 258.470 75.864,257.750 75.576,257.200 75.429 C 256.505 75.243,256.383 75.275,256.800 75.533 M137.600 76.600 C 137.050 76.914,136.780 77.172,137.000 77.172 C 137.220 77.172,137.850 76.914,138.400 76.600 C 138.950 76.286,139.220 76.028,139.000 76.028 C 138.780 76.028,138.150 76.286,137.600 76.600 M259.820 76.755 C 260.029 76.950,260.650 77.228,261.200 77.372 L 262.200 77.633 261.200 77.031 C 260.086 76.359,259.209 76.184,259.820 76.755 M263.200 78.200 C 263.750 78.514,264.380 78.772,264.600 78.772 C 264.820 78.772,264.550 78.514,264.000 78.200 C 263.450 77.886,262.820 77.628,262.600 77.628 C 262.380 77.628,262.650 77.886,263.200 78.200 M130.800 79.400 C 130.250 79.714,129.980 79.972,130.200 79.972 C 130.420 79.972,131.050 79.714,131.600 79.400 C 132.150 79.086,132.420 78.828,132.200 78.828 C 131.980 78.828,131.350 79.086,130.800 79.400 M127.200 81.000 C 126.210 81.530,125.580 81.964,125.800 81.964 C 126.020 81.964,127.010 81.530,128.000 81.000 C 128.990 80.470,129.620 80.036,129.400 80.036 C 129.180 80.036,128.190 80.470,127.200 81.000 M270.833 81.353 C 271.241 81.726,276.000 83.991,276.000 83.812 C 276.000 83.587,271.379 81.200,270.945 81.200 C 270.792 81.200,270.742 81.269,270.833 81.353 M121.496 83.750 C 119.379 85.051,119.099 85.455,121.000 84.465 C 123.053 83.395,123.905 82.811,123.400 82.819 C 123.180 82.822,122.323 83.241,121.496 83.750 M277.776 85.013 C 278.204 85.336,278.733 85.600,278.953 85.600 C 279.173 85.600,279.004 85.336,278.576 85.013 C 278.149 84.690,277.620 84.425,277.400 84.425 C 277.180 84.425,277.349 84.690,277.776 85.013 M113.800 88.038 C 111.600 89.365,109.620 90.645,109.400 90.884 C 108.938 91.385,108.619 91.561,114.400 88.111 C 116.710 86.732,118.420 85.609,118.200 85.615 C 117.980 85.622,116.000 86.712,113.800 88.038 M286.400 89.724 C 286.400 89.817,287.165 90.398,288.100 91.015 C 289.035 91.632,289.589 91.880,289.331 91.568 C 288.834 90.967,286.400 89.436,286.400 89.724 M295.600 95.735 C 295.600 95.840,296.455 96.562,297.500 97.341 C 298.545 98.120,300.300 99.429,301.400 100.251 C 303.904 102.121,303.320 101.469,300.400 99.135 C 297.662 96.946,295.600 95.486,295.600 95.735 M97.000 99.445 C 96.560 99.786,95.851 100.316,95.424 100.623 C 94.997 100.930,94.727 101.259,94.824 101.354 C 94.921 101.448,95.720 100.915,96.600 100.169 C 98.208 98.805,98.494 98.288,97.000 99.445 M91.236 103.997 C 89.704 105.315,88.318 106.609,88.155 106.873 C 87.992 107.137,89.285 106.120,91.029 104.614 C 92.773 103.107,94.275 101.812,94.367 101.737 C 94.458 101.662,94.418 101.600,94.277 101.600 C 94.136 101.600,92.767 102.678,91.236 103.997 M308.600 106.063 C 317.062 113.695,324.527 121.486,329.805 128.195 C 330.907 129.596,331.974 130.891,332.175 131.071 C 332.966 131.782,330.557 128.468,328.635 126.200 C 327.516 124.880,326.150 123.260,325.600 122.600 C 322.361 118.713,313.710 110.178,309.000 106.224 L 305.800 103.537 308.600 106.063 M80.492 113.708 C 78.461 115.747,76.800 117.509,76.800 117.623 C 76.800 117.737,78.510 116.137,80.600 114.067 C 84.030 110.670,84.639 110.000,84.292 110.000 C 84.233 110.000,82.523 111.668,80.492 113.708 M75.181 119.165 C 74.641 119.805,73.237 121.470,72.060 122.865 C 70.031 125.268,70.068 125.244,72.773 122.400 C 75.298 119.746,76.695 118.000,76.295 118.000 C 76.221 118.000,75.720 118.524,75.181 119.165 M68.800 126.600 C 68.283 127.150,68.027 127.594,68.230 127.587 C 68.572 127.576,70.221 125.600,69.888 125.600 C 69.806 125.600,69.317 126.050,68.800 126.600 M67.122 128.700 C 65.873 130.152,63.107 134.105,63.518 133.851 C 63.970 133.572,68.111 128.000,67.866 128.000 C 67.788 128.000,67.453 128.315,67.122 128.700 M333.246 132.606 C 333.821 133.263,335.221 135.195,336.358 136.900 C 337.494 138.605,338.514 140.000,338.623 140.000 C 339.010 140.000,334.086 132.987,333.151 132.206 C 332.294 131.491,332.303 131.530,333.246 132.606 M114.105 133.487 C 114.714 133.579,115.614 133.577,116.105 133.482 C 116.597 133.387,116.100 133.311,115.000 133.314 C 113.900 133.317,113.497 133.395,114.105 133.487 M281.907 133.490 C 282.626 133.579,283.706 133.577,284.307 133.486 C 284.908 133.395,284.320 133.322,283.000 133.324 C 281.680 133.326,281.188 133.401,281.907 133.490 M111.660 133.878 C 111.054 134.120,109.198 137.872,109.226 138.800 C 109.236 139.130,109.607 138.500,110.051 137.400 C 110.495 136.300,111.237 134.995,111.699 134.500 C 112.569 133.568,112.566 133.517,111.660 133.878 M277.200 134.000 C 276.396 134.257,276.357 134.323,277.000 134.332 C 277.440 134.338,278.160 134.189,278.600 134.000 C 279.619 133.562,278.568 133.562,277.200 134.000 M286.445 134.581 C 286.800 135.031,287.290 135.760,287.533 136.200 C 287.777 136.640,287.981 136.778,287.988 136.506 C 287.995 136.235,287.505 135.506,286.900 134.887 C 286.295 134.268,286.090 134.130,286.445 134.581 M271.000 135.414 C 269.385 136.154,270.351 136.155,272.054 135.416 C 272.794 135.094,273.130 134.839,272.800 134.848 C 272.470 134.857,271.660 135.112,271.000 135.414 M130.400 137.000 C 130.950 137.314,131.670 137.571,132.000 137.570 C 132.330 137.569,131.994 137.306,131.254 136.984 C 129.551 136.245,129.094 136.253,130.400 137.000 M266.400 137.000 C 265.850 137.314,265.580 137.572,265.800 137.572 C 266.020 137.572,266.650 137.314,267.200 137.000 C 267.750 136.686,268.020 136.428,267.800 136.428 C 267.580 136.428,266.950 136.686,266.400 137.000 M136.400 139.400 C 136.950 139.714,137.580 139.972,137.800 139.972 C 138.020 139.972,137.750 139.714,137.200 139.400 C 136.650 139.086,136.020 138.828,135.800 138.828 C 135.580 138.828,135.850 139.086,136.400 139.400 M257.500 140.826 C 256.235 141.479,255.200 142.103,255.200 142.212 C 255.200 142.391,259.960 140.125,260.367 139.753 C 260.890 139.273,259.498 139.794,257.500 140.826 M339.562 141.929 C 339.805 142.384,340.201 142.877,340.442 143.026 C 340.756 143.220,340.754 143.062,340.438 142.471 C 340.195 142.016,339.799 141.523,339.558 141.374 C 339.244 141.180,339.246 141.338,339.562 141.929 M141.600 141.793 C 141.600 141.900,142.500 142.443,143.600 143.000 C 146.115 144.275,146.221 144.016,143.750 142.634 C 141.827 141.560,141.600 141.471,141.600 141.793 M253.065 143.047 C 252.440 143.386,252.015 143.748,252.120 143.853 C 252.224 143.957,252.915 143.674,253.655 143.223 C 255.213 142.273,254.748 142.135,253.065 143.047 M289.648 143.600 C 289.642 143.930,289.883 144.740,290.186 145.400 C 290.893 146.945,290.903 146.226,290.200 144.400 C 289.903 143.630,289.655 143.270,289.648 143.600 M107.422 145.022 C 107.272 145.825,107.228 146.562,107.326 146.660 C 107.424 146.757,107.627 146.181,107.778 145.378 C 107.928 144.575,107.972 143.838,107.874 143.740 C 107.776 143.643,107.573 144.219,107.422 145.022 M147.020 144.736 C 147.731 145.365,150.400 146.866,150.400 146.638 C 150.400 146.368,147.346 144.400,146.928 144.400 C 146.770 144.400,146.811 144.551,147.020 144.736 M247.600 146.249 C 245.950 147.254,244.330 148.349,244.000 148.683 C 243.408 149.281,249.844 145.437,250.580 144.753 C 251.323 144.063,250.562 144.445,247.600 146.249 M194.478 145.498 C 196.831 145.569,200.791 145.569,203.278 145.499 C 205.765 145.429,203.840 145.371,199.000 145.370 C 194.160 145.370,192.125 145.428,194.478 145.498 M181.200 146.128 C 179.330 146.357,178.070 146.601,178.400 146.671 C 178.730 146.740,181.340 146.549,184.200 146.246 C 187.512 145.895,188.529 145.698,187.000 145.703 C 185.680 145.708,183.070 145.899,181.200 146.128 M208.833 145.752 C 208.925 145.836,210.800 146.002,213.000 146.121 C 215.830 146.274,216.415 146.240,215.000 146.004 C 212.943 145.661,208.536 145.481,208.833 145.752 M343.091 147.431 C 343.701 148.547,344.519 149.897,344.909 150.431 C 345.300 150.964,345.120 150.486,344.509 149.369 C 343.899 148.253,343.081 146.903,342.691 146.369 C 342.300 145.836,342.480 146.314,343.091 147.431 M217.700 146.676 C 218.085 146.776,218.715 146.776,219.100 146.676 C 219.485 146.575,219.170 146.493,218.400 146.493 C 217.630 146.493,217.315 146.575,217.700 146.676 M150.800 146.938 C 150.800 147.210,155.408 150.000,155.852 149.999 C 156.044 149.998,155.570 149.619,154.800 149.156 C 154.030 148.694,152.815 147.960,152.100 147.525 C 151.385 147.090,150.800 146.826,150.800 146.938 M175.100 147.082 C 175.595 147.178,176.405 147.178,176.900 147.082 C 177.395 146.987,176.990 146.909,176.000 146.909 C 175.010 146.909,174.605 146.987,175.100 147.082 M221.105 147.083 C 221.602 147.179,222.322 147.175,222.705 147.075 C 223.087 146.975,222.680 146.896,221.800 146.901 C 220.920 146.905,220.607 146.987,221.105 147.083 M171.200 147.600 C 169.856 148.031,171.308 148.031,173.000 147.600 C 174.078 147.326,174.098 147.294,173.200 147.287 C 172.650 147.283,171.750 147.424,171.200 147.600 M224.800 147.600 C 225.350 147.776,226.250 147.920,226.800 147.920 L 227.800 147.920 226.800 147.600 C 226.250 147.424,225.350 147.280,224.800 147.280 L 223.800 147.280 224.800 147.600 M231.600 148.800 C 232.968 149.238,234.019 149.238,233.000 148.800 C 232.560 148.611,231.840 148.462,231.400 148.468 C 230.757 148.477,230.796 148.543,231.600 148.800 M106.501 151.400 C 106.505 152.280,106.587 152.593,106.683 152.095 C 106.779 151.598,106.775 150.878,106.675 150.495 C 106.575 150.113,106.496 150.520,106.501 151.400 M156.788 150.545 C 156.980 150.738,157.629 150.713,158.265 150.488 C 159.385 150.091,159.381 150.087,157.923 150.143 C 157.099 150.175,156.598 150.352,156.788 150.545 M239.100 150.282 C 239.595 150.378,240.405 150.378,240.900 150.282 C 241.395 150.187,240.990 150.109,240.000 150.109 C 239.010 150.109,238.605 150.187,239.100 150.282 M291.301 152.200 C 291.305 153.080,291.387 153.393,291.483 152.895 C 291.579 152.398,291.575 151.678,291.475 151.295 C 291.375 150.913,291.296 151.320,291.301 152.200 M51.200 152.800 C 50.751 153.680,50.474 154.400,50.584 154.400 C 50.694 154.400,51.151 153.680,51.600 152.800 C 52.049 151.920,52.326 151.200,52.216 151.200 C 52.106 151.200,51.649 151.920,51.200 152.800 M106.155 159.000 C 106.156 161.860,106.220 162.978,106.297 161.483 C 106.374 159.989,106.374 157.649,106.296 156.283 C 106.218 154.918,106.155 156.140,106.155 159.000 M291.734 159.200 C 291.734 160.850,291.805 161.525,291.891 160.700 C 291.978 159.875,291.978 158.525,291.891 157.700 C 291.805 156.875,291.734 157.550,291.734 159.200 M348.825 158.200 C 348.825 158.420,349.090 158.949,349.413 159.376 C 349.736 159.804,350.000 159.973,350.000 159.753 C 350.000 159.533,349.736 159.004,349.413 158.576 C 349.090 158.149,348.825 157.980,348.825 158.200 M46.672 161.819 C 45.732 163.789,45.864 164.124,46.847 162.262 C 47.293 161.416,47.587 160.654,47.501 160.567 C 47.414 160.481,47.041 161.044,46.672 161.819 M45.265 165.017 C 44.595 166.488,44.723 166.802,45.447 165.465 C 45.786 164.840,45.988 164.254,45.896 164.163 C 45.805 164.071,45.521 164.456,45.265 165.017 M291.293 166.000 C 291.293 166.770,291.375 167.085,291.476 166.700 C 291.576 166.315,291.576 165.685,291.476 165.300 C 291.375 164.915,291.293 165.230,291.293 166.000 M106.493 166.400 C 106.493 167.170,106.575 167.485,106.676 167.100 C 106.776 166.715,106.776 166.085,106.676 165.700 C 106.575 165.315,106.493 165.630,106.493 166.400 M44.065 167.817 C 43.395 169.288,43.523 169.602,44.247 168.265 C 44.586 167.640,44.788 167.054,44.696 166.963 C 44.605 166.871,44.321 167.256,44.065 167.817 M42.615 171.415 C 42.230 172.424,42.004 173.337,42.113 173.446 C 42.221 173.555,42.600 172.793,42.954 171.754 C 43.790 169.299,43.525 169.034,42.615 171.415 M107.450 172.000 C 107.590 172.770,107.861 173.760,108.054 174.200 C 108.294 174.749,108.324 174.561,108.150 173.600 C 108.010 172.830,107.739 171.840,107.546 171.400 C 107.306 170.851,107.276 171.039,107.450 172.000 M290.046 172.039 C 289.801 172.743,289.613 173.518,289.628 173.760 C 289.644 174.002,289.914 173.496,290.230 172.635 C 290.545 171.774,290.733 171.000,290.648 170.915 C 290.562 170.829,290.292 171.335,290.046 172.039 M40.851 176.156 C 40.396 177.372,39.921 178.870,39.796 179.484 C 39.672 180.098,40.115 179.174,40.782 177.430 C 41.449 175.687,41.923 174.190,41.836 174.103 C 41.749 174.016,41.306 174.940,40.851 176.156 M108.366 178.064 C 108.111 178.540,106.703 180.565,105.236 182.564 C 102.732 185.977,100.292 189.697,101.801 187.800 C 104.993 183.790,109.485 177.200,109.028 177.200 C 108.918 177.200,108.620 177.589,108.366 178.064 M289.600 179.325 C 289.600 179.394,290.185 179.979,290.900 180.625 L 292.200 181.800 291.025 180.500 C 289.930 179.288,289.600 179.016,289.600 179.325 M358.062 180.400 C 358.062 180.730,358.394 181.900,358.800 183.000 C 359.206 184.100,359.538 184.730,359.538 184.400 C 359.538 184.070,359.206 182.900,358.800 181.800 C 358.394 180.700,358.062 180.070,358.062 180.400 M38.880 182.280 C 38.288 184.209,38.575 184.495,39.200 182.600 C 39.464 181.801,39.602 181.069,39.507 180.974 C 39.412 180.878,39.130 181.466,38.880 182.280 M293.861 184.673 C 295.725 187.388,296.842 188.793,296.189 187.600 C 295.435 186.223,292.773 182.431,292.396 182.198 C 292.172 182.059,292.831 183.173,293.861 184.673 M98.579 193.241 C 97.792 194.804,97.214 196.147,97.294 196.227 C 97.373 196.307,98.103 195.028,98.916 193.386 C 99.729 191.744,100.307 190.400,100.202 190.400 C 100.096 190.400,99.366 191.678,98.579 193.241 M35.800 194.000 C 35.650 194.473,35.617 194.950,35.727 195.060 C 35.837 195.170,36.050 194.873,36.200 194.400 C 36.350 193.927,36.383 193.450,36.273 193.340 C 36.163 193.230,35.950 193.527,35.800 194.000 M96.465 197.817 C 95.795 199.288,95.923 199.602,96.647 198.265 C 96.986 197.640,97.188 197.054,97.096 196.963 C 97.005 196.871,96.721 197.256,96.465 197.817 M301.419 198.734 C 301.925 200.576,303.541 204.992,303.565 204.600 C 303.602 203.995,302.059 199.223,301.581 198.465 C 301.241 197.925,301.210 197.975,301.419 198.734 M34.200 201.600 C 34.048 202.291,34.007 202.941,34.109 203.042 C 34.211 203.144,34.409 202.653,34.550 201.950 C 34.883 200.283,34.560 199.960,34.200 201.600 M363.680 203.800 C 363.680 204.240,363.824 205.050,364.000 205.600 C 364.254 206.392,364.320 206.433,364.320 205.800 C 364.320 205.360,364.176 204.550,364.000 204.000 C 363.746 203.208,363.680 203.167,363.680 203.800 M303.680 205.800 C 303.680 206.240,303.824 207.050,304.000 207.600 C 304.254 208.392,304.320 208.433,304.320 207.800 C 304.320 207.360,304.176 206.550,304.000 206.000 C 303.746 205.208,303.680 205.167,303.680 205.800 M33.040 208.640 C 32.890 210.103,32.849 211.382,32.948 211.482 C 33.048 211.581,33.257 210.471,33.413 209.013 C 33.569 207.556,33.611 206.277,33.505 206.172 C 33.399 206.066,33.190 207.177,33.040 208.640 M364.501 208.600 C 364.505 209.480,364.587 209.793,364.683 209.295 C 364.779 208.798,364.775 208.078,364.675 207.695 C 364.575 207.313,364.496 207.720,364.501 208.600 M304.470 209.800 C 304.457 210.240,304.595 211.320,304.777 212.200 C 305.055 213.545,305.108 213.609,305.107 212.600 C 305.105 211.199,304.508 208.570,304.470 209.800 M364.901 212.200 C 364.905 213.080,364.987 213.393,365.083 212.895 C 365.179 212.398,365.175 211.678,365.075 211.295 C 364.975 210.913,364.896 211.320,364.901 212.200 M32.501 213.800 C 32.505 214.680,32.587 214.993,32.683 214.495 C 32.779 213.998,32.775 213.278,32.675 212.895 C 32.575 212.513,32.496 212.920,32.501 213.800 M92.514 214.200 C 92.517 215.300,92.595 215.703,92.687 215.095 C 92.779 214.486,92.777 213.586,92.682 213.095 C 92.587 212.603,92.511 213.100,92.514 214.200 M305.328 216.800 C 305.328 218.230,305.401 218.815,305.489 218.100 C 305.578 217.385,305.578 216.215,305.489 215.500 C 305.401 214.785,305.328 215.370,305.328 216.800 M365.497 218.800 C 365.615 221.110,365.776 223.075,365.856 223.167 C 366.141 223.496,365.946 217.765,365.619 216.200 C 365.400 215.156,365.358 216.060,365.497 218.800 M32.101 217.400 C 32.105 218.280,32.187 218.593,32.283 218.095 C 32.379 217.598,32.375 216.878,32.275 216.495 C 32.175 216.113,32.096 216.520,32.101 217.400 M92.150 223.000 C 92.151 225.420,92.216 226.358,92.296 225.085 C 92.376 223.812,92.375 221.832,92.294 220.685 C 92.214 219.538,92.149 220.580,92.150 223.000 M31.774 230.600 C 31.775 236.320,31.831 238.604,31.899 235.676 C 31.968 232.748,31.967 228.068,31.899 225.276 C 31.830 222.484,31.774 224.880,31.774 230.600 M305.355 227.800 C 305.356 230.660,305.420 231.778,305.497 230.283 C 305.574 228.789,305.574 226.449,305.496 225.083 C 305.418 223.718,305.355 224.940,305.355 227.800 M366.153 230.600 C 366.153 233.240,366.218 234.268,366.297 232.884 C 366.375 231.501,366.374 229.341,366.295 228.084 C 366.216 226.828,366.152 227.960,366.153 230.600 M92.528 233.600 C 92.528 235.030,92.601 235.615,92.689 234.900 C 92.778 234.185,92.778 233.015,92.689 232.300 C 92.601 231.585,92.528 232.170,92.528 233.600 M304.625 237.225 C 304.470 238.794,304.427 240.161,304.529 240.262 C 304.631 240.364,304.843 239.166,305.000 237.600 C 305.157 236.034,305.200 234.667,305.096 234.563 C 304.992 234.458,304.780 235.656,304.625 237.225 M365.492 242.761 C 365.325 245.049,365.264 246.997,365.357 247.090 C 365.619 247.352,366.088 241.574,365.933 240.000 C 365.857 239.230,365.658 240.472,365.492 242.761 M303.815 243.415 C 303.661 244.654,303.617 245.750,303.719 245.852 C 303.820 245.954,304.030 245.023,304.185 243.785 C 304.339 242.546,304.383 241.450,304.281 241.348 C 304.180 241.246,303.970 242.177,303.815 243.415 M32.109 244.000 C 32.109 244.990,32.187 245.395,32.282 244.900 C 32.378 244.405,32.378 243.595,32.282 243.100 C 32.187 242.605,32.109 243.010,32.109 244.000 M32.501 247.800 C 32.505 248.680,32.587 248.993,32.683 248.495 C 32.779 247.998,32.775 247.278,32.675 246.895 C 32.575 246.513,32.496 246.920,32.501 247.800 M303.000 247.600 C 302.848 248.291,302.814 248.947,302.924 249.057 C 303.034 249.167,303.248 248.691,303.400 248.000 C 303.552 247.309,303.586 246.653,303.476 246.543 C 303.366 246.433,303.152 246.909,303.000 247.600 M364.909 249.600 C 364.909 250.590,364.987 250.995,365.082 250.500 C 365.178 250.005,365.178 249.195,365.082 248.700 C 364.987 248.205,364.909 248.610,364.909 249.600 M301.910 252.200 C 301.770 252.860,301.551 253.760,301.422 254.200 C 301.294 254.640,301.470 254.394,301.814 253.653 C 302.159 252.912,302.378 252.012,302.303 251.653 C 302.223 251.275,302.057 251.506,301.910 252.200 M364.493 253.200 C 364.493 253.970,364.575 254.285,364.676 253.900 C 364.776 253.515,364.776 252.885,364.676 252.500 C 364.575 252.115,364.493 252.430,364.493 253.200 M33.301 253.800 C 33.305 254.680,33.387 254.993,33.483 254.495 C 33.579 253.998,33.575 253.278,33.475 252.895 C 33.375 252.513,33.296 252.920,33.301 253.800 M96.654 255.600 C 96.789 256.150,97.145 257.140,97.445 257.800 C 97.884 258.764,97.943 258.803,97.746 258.000 C 97.611 257.450,97.255 256.460,96.955 255.800 C 96.516 254.836,96.457 254.797,96.654 255.600 M300.629 256.229 C 300.481 256.815,300.438 257.372,300.532 257.466 C 300.627 257.560,300.824 257.158,300.971 256.571 C 301.119 255.985,301.162 255.428,301.068 255.334 C 300.973 255.240,300.776 255.642,300.629 256.229 M363.822 256.622 C 363.672 257.425,363.628 258.162,363.726 258.260 C 363.824 258.357,364.027 257.781,364.178 256.978 C 364.328 256.175,364.372 255.438,364.274 255.340 C 364.176 255.243,363.973 255.819,363.822 256.622 M34.087 258.800 C 34.083 259.350,34.224 260.250,34.400 260.800 C 34.831 262.144,34.831 260.692,34.400 259.000 C 34.126 257.922,34.094 257.902,34.087 258.800 M98.030 259.274 C 97.982 259.710,100.097 264.436,100.264 264.269 C 100.348 264.186,99.885 262.966,99.237 261.559 C 98.589 260.151,98.046 259.123,98.030 259.274 M362.650 263.650 C 362.509 264.353,362.469 265.002,362.559 265.092 C 362.650 265.183,362.848 264.691,363.000 264.000 C 363.152 263.309,363.193 262.659,363.091 262.558 C 362.989 262.456,362.791 262.947,362.650 263.650 M294.902 269.300 C 294.336 270.015,293.540 271.600,293.746 271.600 C 293.842 271.600,294.293 270.970,294.747 270.200 C 295.573 268.801,295.649 268.357,294.902 269.300 M104.267 272.006 C 104.659 272.670,105.398 273.705,105.910 274.306 C 106.421 274.908,106.175 274.365,105.363 273.100 C 103.824 270.703,103.028 269.907,104.267 272.006 M107.502 276.600 C 107.949 277.260,109.729 279.258,111.457 281.040 C 113.186 282.821,113.697 283.271,112.594 282.040 C 111.490 280.808,109.710 278.810,108.638 277.600 C 107.566 276.390,107.054 275.940,107.502 276.600 M359.429 276.629 C 359.281 277.215,359.238 277.772,359.332 277.866 C 359.427 277.960,359.624 277.558,359.771 276.971 C 359.919 276.385,359.962 275.828,359.868 275.734 C 359.773 275.640,359.576 276.042,359.429 276.629 M285.192 281.900 L 281.400 285.800 285.300 282.008 C 288.922 278.486,289.382 278.000,289.092 278.000 C 289.033 278.000,287.278 279.755,285.192 281.900 M39.626 282.000 C 39.627 282.330,39.899 283.050,40.231 283.600 L 40.833 284.600 40.568 283.600 C 40.184 282.148,39.624 281.197,39.626 282.000 M116.600 285.799 C 118.372 287.380,123.240 290.907,123.390 290.720 C 123.442 290.654,121.576 289.199,119.242 287.486 C 116.909 285.774,115.720 285.015,116.600 285.799 M40.800 285.042 C 40.800 285.981,45.591 297.742,45.863 297.470 C 45.944 297.389,45.537 296.260,44.959 294.961 C 44.380 293.663,43.286 290.893,42.527 288.807 C 41.181 285.106,40.800 284.277,40.800 285.042 M279.200 287.049 C 276.634 289.056,276.264 289.563,278.518 287.983 C 280.200 286.804,281.585 285.560,281.149 285.621 C 281.067 285.632,280.190 286.275,279.200 287.049 M356.100 286.900 C 355.670 288.075,355.680 288.126,356.212 287.424 C 356.721 286.752,357.021 285.600,356.688 285.600 C 356.626 285.600,356.361 286.185,356.100 286.900 M131.200 295.000 C 132.190 295.530,133.180 295.964,133.400 295.964 C 133.620 295.964,132.990 295.530,132.000 295.000 C 131.010 294.470,130.020 294.036,129.800 294.036 C 129.580 294.036,130.210 294.470,131.200 295.000 M81.907 295.490 C 82.626 295.579,83.706 295.577,84.307 295.486 C 84.908 295.395,84.320 295.322,83.000 295.324 C 81.680 295.326,81.188 295.401,81.907 295.490 M264.000 295.800 C 263.450 296.114,263.180 296.372,263.400 296.372 C 263.620 296.372,264.250 296.114,264.800 295.800 C 265.350 295.486,265.620 295.228,265.400 295.228 C 265.180 295.228,264.550 295.486,264.000 295.800 M77.054 296.829 C 76.474 297.285,76.004 297.870,76.009 298.129 C 76.014 298.388,76.329 298.218,76.709 297.752 C 77.089 297.286,77.760 296.706,78.200 296.464 C 78.640 296.222,78.799 296.019,78.554 296.012 C 78.309 296.005,77.634 296.373,77.054 296.829 M261.200 297.000 C 260.650 297.314,260.380 297.572,260.600 297.572 C 260.820 297.572,261.450 297.314,262.000 297.000 C 262.550 296.686,262.820 296.428,262.600 296.428 C 262.380 296.428,261.750 296.686,261.200 297.000 M350.485 300.215 C 349.561 302.077,348.893 303.600,348.998 303.600 C 349.265 303.600,352.485 297.151,352.307 296.974 C 352.228 296.895,351.408 298.353,350.485 300.215 M46.012 298.163 C 45.996 298.650,50.049 306.885,50.220 306.713 C 50.294 306.639,49.380 304.603,48.189 302.189 C 46.998 299.775,46.018 297.963,46.012 298.163 M76.040 299.336 C 75.996 300.140,78.208 302.924,79.679 303.918 C 80.186 304.260,79.700 303.610,78.600 302.474 C 77.500 301.337,76.483 300.001,76.340 299.504 C 76.136 298.794,76.071 298.758,76.040 299.336 M94.833 298.930 C 95.580 299.511,99.200 301.548,99.200 301.387 C 99.200 301.096,95.522 298.800,95.055 298.800 C 94.841 298.800,94.742 298.858,94.833 298.930 M91.467 300.667 C 90.699 301.434,91.531 303.618,92.580 303.588 C 92.811 303.581,92.685 303.392,92.300 303.168 C 91.160 302.504,91.385 300.800,92.613 300.800 C 93.829 300.800,94.316 301.802,93.633 302.897 C 93.232 303.538,93.239 303.654,93.669 303.512 C 94.383 303.277,94.578 301.696,93.982 300.978 C 93.489 300.384,91.941 300.192,91.467 300.667 M149.600 301.200 C 149.930 301.413,150.470 301.588,150.800 301.588 C 151.333 301.588,151.333 301.545,150.800 301.200 C 150.470 300.987,149.930 300.812,149.600 300.812 C 149.067 300.812,149.067 300.855,149.600 301.200 M246.600 301.200 C 246.096 301.417,246.022 301.544,246.400 301.544 C 246.730 301.544,247.360 301.389,247.800 301.200 C 248.304 300.983,248.378 300.856,248.000 300.856 C 247.670 300.856,247.040 301.011,246.600 301.200 M102.511 304.567 C 104.222 306.293,106.363 308.761,107.269 310.052 C 108.175 311.344,109.001 312.400,109.104 312.400 C 109.698 312.400,104.630 305.861,102.940 304.446 C 102.313 303.921,101.260 303.028,100.600 302.460 C 99.940 301.893,100.800 302.841,102.511 304.567 M155.200 302.400 C 155.750 302.576,156.560 302.720,157.000 302.720 C 157.633 302.720,157.592 302.654,156.800 302.400 C 156.250 302.224,155.440 302.080,155.000 302.080 C 154.367 302.080,154.408 302.146,155.200 302.400 M240.200 302.400 C 239.130 302.672,239.108 302.705,240.000 302.705 C 240.550 302.705,241.540 302.568,242.200 302.400 C 243.270 302.128,243.292 302.095,242.400 302.095 C 241.850 302.095,240.860 302.232,240.200 302.400 M161.300 303.476 C 161.685 303.576,162.315 303.576,162.700 303.476 C 163.085 303.375,162.770 303.293,162.000 303.293 C 161.230 303.293,160.915 303.375,161.300 303.476 M164.866 304.053 C 166.306 304.581,166.514 305.347,165.550 306.572 C 165.019 307.247,164.940 307.521,165.318 307.376 C 167.130 306.681,166.596 303.563,164.677 303.632 C 163.887 303.660,163.906 303.702,164.866 304.053 M231.441 304.463 C 230.789 305.394,231.382 306.691,233.073 308.036 C 233.463 308.346,233.195 307.880,232.477 307.000 L 231.171 305.400 232.208 304.500 C 232.905 303.895,233.048 303.600,232.645 303.600 C 232.315 303.600,231.773 303.989,231.441 304.463 M81.452 305.070 C 81.920 305.471,83.413 306.597,84.770 307.571 C 87.016 309.183,88.803 310.868,91.803 314.200 C 92.725 315.224,92.708 315.166,91.683 313.800 C 89.838 311.338,87.985 309.559,84.756 307.148 C 81.751 304.904,79.904 303.742,81.452 305.070 M97.919 307.418 C 97.508 308.321,97.583 308.560,98.580 309.518 L 99.705 310.600 98.790 309.317 C 98.030 308.251,97.961 307.929,98.386 307.417 C 98.964 306.720,100.227 306.596,100.600 307.200 C 100.736 307.420,101.051 307.600,101.300 307.600 C 101.549 307.600,101.404 307.336,100.976 307.013 C 99.750 306.085,98.448 306.258,97.919 307.418 M101.646 308.867 C 101.621 309.453,101.375 310.024,101.100 310.135 C 100.708 310.293,100.711 310.344,101.113 310.368 C 101.747 310.408,102.130 309.487,101.880 308.523 C 101.754 308.036,101.678 308.148,101.646 308.867 M161.580 312.839 C 161.120 313.740,160.813 314.546,160.897 314.630 C 160.981 314.714,161.441 313.976,161.919 312.991 C 163.009 310.747,162.715 310.615,161.580 312.839 M343.772 313.100 C 343.165 314.145,342.406 315.450,342.086 316.000 L 341.505 317.000 342.253 316.101 C 343.126 315.049,345.332 311.200,345.061 311.200 C 344.959 311.200,344.379 312.055,343.772 313.100 M109.438 313.300 C 110.639 315.403,113.576 319.027,115.842 321.200 L 118.552 323.800 115.409 320.400 C 113.681 318.530,111.662 316.055,110.921 314.900 C 109.765 313.096,108.611 311.851,109.438 313.300 M236.428 313.692 C 236.382 314.165,237.686 317.248,237.858 317.075 C 237.945 316.988,237.666 316.125,237.237 315.158 C 236.808 314.191,236.444 313.531,236.428 313.692 M104.662 315.531 C 103.703 316.591,103.844 317.505,105.169 318.831 C 107.661 321.323,110.562 318.734,108.185 316.139 L 107.142 315.000 107.990 316.224 C 109.751 318.766,107.468 320.794,105.381 318.542 C 103.868 316.909,104.181 315.586,106.200 315.089 C 106.970 314.900,106.968 314.891,106.162 314.846 C 105.701 314.821,105.026 315.129,104.662 315.531 M159.988 316.022 C 159.746 316.474,159.607 317.022,159.680 317.239 C 159.752 317.457,160.018 317.087,160.271 316.417 C 160.797 315.025,160.639 314.805,159.988 316.022 M56.422 317.800 C 56.918 318.680,57.590 319.670,57.916 320.000 C 58.705 320.799,57.410 318.509,56.318 317.174 C 55.646 316.353,55.663 316.451,56.422 317.800 M238.061 318.000 C 238.061 318.330,238.303 319.230,238.600 320.000 C 238.897 320.770,239.139 321.130,239.139 320.800 C 239.139 320.470,238.897 319.570,238.600 318.800 C 238.303 318.030,238.061 317.670,238.061 318.000 M96.360 321.000 C 97.034 322.305,97.588 323.028,97.585 322.600 C 97.583 322.380,97.214 321.750,96.764 321.200 C 96.221 320.536,96.085 320.469,96.360 321.000 M336.954 323.900 C 336.145 325.165,334.421 327.595,333.123 329.300 C 331.826 331.005,330.854 332.400,330.964 332.400 C 331.261 332.400,335.661 326.547,337.354 323.900 C 338.163 322.635,338.735 321.600,338.625 321.600 C 338.515 321.600,337.763 322.635,336.954 323.900 M59.564 322.733 C 59.780 323.136,60.271 323.721,60.655 324.033 C 61.087 324.384,60.990 324.104,60.401 323.300 C 59.351 321.865,58.957 321.598,59.564 322.733 M112.562 324.862 L 111.800 325.724 112.844 325.053 C 113.426 324.678,114.222 324.491,114.644 324.629 C 115.266 324.832,115.294 324.799,114.800 324.444 C 113.915 323.807,113.411 323.901,112.562 324.862 M239.677 324.800 C 239.667 325.350,239.803 326.610,239.980 327.600 L 240.300 329.400 240.303 327.800 C 240.304 326.920,240.168 325.660,240.000 325.000 C 239.723 323.913,239.693 323.894,239.677 324.800 M98.834 325.400 C 98.834 325.620,99.178 326.430,99.600 327.200 C 100.022 327.970,100.366 328.420,100.366 328.200 C 100.366 327.980,100.022 327.170,99.600 326.400 C 99.178 325.630,98.834 325.180,98.834 325.400 M63.008 327.558 C 63.815 328.681,64.557 329.600,64.657 329.600 C 64.932 329.600,62.452 326.080,61.966 325.779 C 61.732 325.635,62.201 326.435,63.008 327.558 M112.046 326.671 C 111.943 328.604,115.760 330.692,116.851 329.300 C 117.349 328.666,117.334 328.651,116.700 329.149 C 115.480 330.106,112.759 328.534,112.288 326.600 C 112.106 325.855,112.090 325.860,112.046 326.671 M129.000 329.414 C 129.660 329.717,130.560 329.960,131.000 329.955 C 131.440 329.950,130.990 329.691,130.000 329.379 C 127.779 328.680,127.422 328.692,129.000 329.414 M147.000 329.600 L 146.200 329.944 147.000 329.966 C 147.440 329.978,148.070 329.813,148.400 329.600 C 149.195 329.086,148.196 329.086,147.000 329.600 M240.589 355.800 C 240.589 370.320,240.639 376.202,240.700 368.871 C 240.761 361.540,240.761 349.660,240.700 342.471 C 240.639 335.282,240.589 341.280,240.589 355.800 M143.700 330.276 C 144.085 330.376,144.715 330.376,145.100 330.276 C 145.485 330.175,145.170 330.093,144.400 330.093 C 143.630 330.093,143.315 330.175,143.700 330.276 M137.300 330.687 C 137.905 330.778,138.895 330.778,139.500 330.687 C 140.105 330.595,139.610 330.520,138.400 330.520 C 137.190 330.520,136.695 330.595,137.300 330.687 M123.680 332.080 C 122.655 333.105,124.044 336.031,125.529 335.975 C 126.007 335.957,125.940 335.845,125.297 335.586 C 124.024 335.075,123.299 333.374,123.926 332.370 C 124.474 331.492,124.380 331.380,123.680 332.080 M150.400 332.800 C 149.339 333.861,149.379 335.400,150.489 336.177 C 153.146 338.039,157.203 335.068,155.176 332.744 L 154.353 331.800 155.022 332.900 C 156.314 335.021,153.781 337.069,151.192 335.997 C 149.663 335.363,149.602 333.971,151.054 332.829 C 151.634 332.373,151.904 332.000,151.654 332.000 C 151.404 332.000,150.840 332.360,150.400 332.800 M128.954 333.082 C 129.533 334.112,128.757 335.546,127.463 335.836 C 126.768 335.992,126.398 336.189,126.639 336.273 C 128.273 336.842,130.394 334.182,129.192 333.071 C 128.800 332.709,128.745 332.711,128.954 333.082 M329.742 333.700 C 327.677 336.030,325.177 339.291,326.445 338.000 C 328.044 336.372,330.979 332.800,330.718 332.800 C 330.620 332.800,330.181 333.205,329.742 333.700 M103.083 334.339 C 103.477 335.076,104.393 336.336,105.117 337.139 L 106.434 338.600 105.117 336.790 C 104.393 335.794,103.477 334.534,103.083 333.990 C 102.393 333.038,102.393 333.051,103.083 334.339 M137.421 334.624 C 135.933 336.895,138.607 339.098,141.302 337.820 C 143.392 336.828,143.560 333.600,141.521 333.600 C 141.268 333.600,141.491 334.058,142.017 334.618 C 143.125 335.798,142.838 336.651,141.033 337.536 C 138.643 338.708,136.467 336.417,138.150 334.500 C 138.584 334.005,138.749 333.600,138.516 333.600 C 138.283 333.600,137.790 334.061,137.421 334.624 M68.462 334.700 C 71.308 338.100,76.935 344.397,77.845 345.200 C 78.469 345.750,77.893 345.016,76.567 343.568 C 75.240 342.121,72.841 339.376,71.234 337.468 C 69.628 335.561,68.215 334.000,68.095 334.000 C 67.975 334.000,68.140 334.315,68.462 334.700 M107.800 340.360 C 109.393 342.064,116.151 346.806,116.970 346.793 C 117.207 346.790,116.770 346.405,116.000 345.939 C 112.920 344.076,110.206 342.150,108.253 340.443 L 106.200 338.647 107.800 340.360 M321.986 342.700 L 319.800 345.000 322.100 342.814 C 324.237 340.782,324.583 340.400,324.286 340.400 C 324.224 340.400,323.189 341.435,321.986 342.700 M79.545 347.100 C 79.954 347.485,81.709 349.150,83.445 350.799 C 86.589 353.788,86.587 353.785,83.008 350.099 C 81.033 348.065,79.278 346.400,79.108 346.400 C 78.939 346.400,79.135 346.715,79.545 347.100 M313.847 350.875 L 310.600 354.149 314.000 350.986 C 315.870 349.247,317.475 347.773,317.567 347.712 C 317.658 347.650,317.589 347.600,317.413 347.600 C 317.238 347.600,315.633 349.074,313.847 350.875 M131.700 351.076 C 132.085 351.176,132.715 351.176,133.100 351.076 C 133.485 350.975,133.170 350.893,132.400 350.893 C 131.630 350.893,131.315 350.975,131.700 351.076 M145.905 351.083 C 146.402 351.179,147.122 351.175,147.505 351.075 C 147.887 350.975,147.480 350.896,146.600 350.901 C 145.720 350.905,145.407 350.987,145.905 351.083 M137.500 351.495 C 138.655 351.576,140.545 351.576,141.700 351.495 C 142.855 351.414,141.910 351.348,139.600 351.348 C 137.290 351.348,136.345 351.414,137.500 351.495 M156.957 360.000 C 156.957 362.970,157.020 364.185,157.097 362.700 C 157.174 361.215,157.174 358.785,157.097 357.300 C 157.020 355.815,156.957 357.030,156.957 360.000 M305.600 358.045 C 301.033 361.898,300.123 362.816,303.400 360.266 C 306.084 358.177,309.907 354.828,309.600 354.835 C 309.490 354.838,307.690 356.282,305.600 358.045 M92.000 358.126 C 92.000 358.236,92.900 359.079,94.000 360.000 C 95.100 360.921,96.000 361.584,96.000 361.474 C 96.000 361.364,95.100 360.521,94.000 359.600 C 92.900 358.679,92.000 358.016,92.000 358.126 M96.579 361.966 C 96.880 362.452,100.400 364.932,100.400 364.657 C 100.400 364.557,99.481 363.815,98.358 363.008 C 97.235 362.201,96.435 361.732,96.579 361.966 M299.200 363.249 C 297.806 364.471,297.805 364.472,299.088 363.619 C 299.796 363.148,300.482 362.591,300.612 362.381 C 300.997 361.757,300.677 361.954,299.200 363.249 M295.679 365.635 C 293.436 367.284,293.528 367.563,295.800 366.000 C 297.365 364.923,297.914 364.400,297.479 364.400 C 297.412 364.400,296.602 364.956,295.679 365.635 M100.979 365.166 C 101.087 365.340,102.485 366.377,104.087 367.471 C 107.053 369.495,110.362 371.529,110.000 371.105 C 109.630 370.671,100.781 364.846,100.979 365.166 M287.333 371.126 C 285.102 372.563,284.593 373.176,286.600 372.008 C 288.077 371.148,289.620 369.966,289.186 370.026 C 289.084 370.040,288.250 370.535,287.333 371.126 M110.800 371.698 C 111.517 372.423,121.645 378.088,121.853 377.880 C 121.933 377.800,120.154 376.720,117.899 375.480 C 115.645 374.240,112.990 372.745,112.000 372.158 C 111.010 371.571,110.470 371.364,110.800 371.698 M283.500 373.429 C 282.005 374.240,282.096 374.578,283.600 373.800 C 284.260 373.459,284.800 373.094,284.800 372.990 C 284.800 372.732,284.757 372.747,283.500 373.429 M279.119 375.923 C 275.502 377.955,275.089 378.520,278.600 376.632 C 281.117 375.279,282.475 374.386,281.980 374.408 C 281.881 374.413,280.593 375.094,279.119 375.923 M157.301 379.000 C 157.305 379.880,157.387 380.193,157.483 379.695 C 157.579 379.198,157.575 378.478,157.475 378.095 C 157.375 377.713,157.296 378.120,157.301 379.000 M267.600 381.600 C 266.830 382.022,266.380 382.366,266.600 382.366 C 266.820 382.366,267.630 382.022,268.400 381.600 C 269.170 381.178,269.620 380.834,269.400 380.834 C 269.180 380.834,268.370 381.178,267.600 381.600 M240.825 382.807 C 240.800 383.415,242.641 386.400,243.042 386.400 C 243.159 386.400,242.883 385.879,242.430 385.242 C 241.976 384.605,241.435 383.660,241.228 383.142 C 241.018 382.618,240.839 382.470,240.825 382.807 M264.400 383.000 C 263.850 383.314,263.580 383.572,263.800 383.572 C 264.020 383.572,264.650 383.314,265.200 383.000 C 265.750 382.686,266.020 382.428,265.800 382.428 C 265.580 382.428,264.950 382.686,264.400 383.000 M154.778 385.900 L 153.400 387.400 154.900 386.022 C 156.296 384.738,156.584 384.400,156.278 384.400 C 156.212 384.400,155.537 385.075,154.778 385.900 " stroke="none" fill="#77aabc" fill-rule="evenodd"></path></g></svg>